<svg width="565" height="288" viewBox="0 0 565 288" fill="none" xmlns="http://www.w3.org/2000/svg">
<g clip-path="url(#clip0_136_247)">
<g clip-path="url(#clip1_136_247)">
<mask id="path-1-outside-1_136_247" maskUnits="userSpaceOnUse" x="147" y="84" width="271" height="111" fill="black">
<rect fill="white" x="147" y="84" width="271" height="111"/>
<path d="M151.453 127.968C151.645 118.272 151.741 110.304 151.741 104.064C151.741 97.824 151.309 91.872 150.445 86.208C150.445 85.248 151.405 84.768 153.325 84.768C155.245 84.768 156.877 85.008 158.221 85.488C159.661 85.968 160.669 86.496 161.245 87.072C162.781 88.608 163.645 89.376 163.837 89.376C164.125 89.376 164.893 88.944 166.141 88.08C169.885 85.68 174.013 84.48 178.525 84.48C183.133 84.48 187.117 85.632 190.477 87.936C193.933 90.24 196.381 93.264 197.821 97.008C200.413 103.44 201.709 110.256 201.709 117.456C201.709 124.56 200.413 131.664 197.821 138.768C196.381 142.608 194.269 145.776 191.485 148.272C188.701 150.672 185.437 151.872 181.693 151.872C174.301 151.872 170.605 147.6 170.605 139.056C170.605 136.752 171.085 135.6 172.045 135.6C172.237 135.6 172.765 135.84 173.629 136.32C174.589 136.704 175.501 136.896 176.365 136.896C183.181 136.896 186.589 129.696 186.589 115.296C186.589 100.8 182.941 93.552 175.645 93.552C173.629 93.552 171.901 94.032 170.461 94.992C169.117 95.856 168.253 96.72 167.869 97.584L167.293 99.024C165.949 107.664 165.277 124.32 165.277 148.992C165.277 160.128 165.469 168.096 165.853 172.896C166.333 177.792 166.573 180.72 166.573 181.68C166.573 182.64 166.285 183.504 165.709 184.272C163.789 186.768 161.197 188.976 157.933 190.896C154.669 192.912 151.789 193.92 149.293 193.92C148.333 193.92 147.853 193.296 147.853 192.048C149.389 182.352 150.589 160.992 151.453 127.968ZM222.474 113.424L222.618 117.024C222.618 117.6 223.002 117.888 223.77 117.888C226.842 117.6 229.53 116.832 231.834 115.584C234.138 114.24 235.866 112.752 237.018 111.12C239.322 107.568 240.57 104.496 240.762 101.904L240.906 100.176C240.906 94.992 238.842 92.4 234.714 92.4C231.642 92.4 229.146 93.744 227.226 96.432C224.058 100.656 222.474 106.32 222.474 113.424ZM253.866 132.576C253.866 136.224 253.098 139.44 251.562 142.224C250.122 144.912 248.442 146.928 246.522 148.272C244.698 149.52 242.538 150.528 240.042 151.296C236.874 152.256 233.85 152.736 230.97 152.736C222.906 152.736 216.954 149.712 213.114 143.664C209.274 137.616 207.354 129.936 207.354 120.624C207.354 111.216 209.706 102.864 214.41 95.568C219.21 88.272 226.362 84.624 235.866 84.624C244.506 84.624 250.362 87.648 253.434 93.696C254.682 96 255.306 98.208 255.306 100.32C255.306 102.336 255.21 103.968 255.018 105.216C254.826 106.368 254.154 108.144 253.002 110.544C251.85 112.944 250.314 115.104 248.394 117.024C246.474 118.944 243.45 120.768 239.322 122.496C235.194 124.224 230.346 125.376 224.778 125.952C224.01 125.952 223.626 126.288 223.626 126.96C223.626 127.824 223.914 129.12 224.49 130.848C225.162 132.48 225.882 133.872 226.65 135.024C228.762 137.712 231.882 139.056 236.01 139.056C240.138 139.056 243.642 137.712 246.522 135.024C248.058 133.584 249.306 131.808 250.266 129.696C250.65 128.928 251.13 128.544 251.706 128.544C252.378 128.544 252.906 129.072 253.29 130.128C253.674 131.184 253.866 132 253.866 132.576ZM275.49 113.424L275.634 117.024C275.634 117.6 276.018 117.888 276.786 117.888C279.858 117.6 282.546 116.832 284.85 115.584C287.154 114.24 288.882 112.752 290.034 111.12C292.338 107.568 293.586 104.496 293.778 101.904L293.922 100.176C293.922 94.992 291.858 92.4 287.73 92.4C284.658 92.4 282.162 93.744 280.242 96.432C277.074 100.656 275.49 106.32 275.49 113.424ZM306.882 132.576C306.882 136.224 306.114 139.44 304.578 142.224C303.138 144.912 301.458 146.928 299.538 148.272C297.714 149.52 295.554 150.528 293.058 151.296C289.89 152.256 286.866 152.736 283.986 152.736C275.922 152.736 269.97 149.712 266.13 143.664C262.29 137.616 260.37 129.936 260.37 120.624C260.37 111.216 262.722 102.864 267.426 95.568C272.226 88.272 279.378 84.624 288.882 84.624C297.522 84.624 303.378 87.648 306.45 93.696C307.698 96 308.322 98.208 308.322 100.32C308.322 102.336 308.226 103.968 308.034 105.216C307.842 106.368 307.17 108.144 306.018 110.544C304.866 112.944 303.33 115.104 301.41 117.024C299.49 118.944 296.466 120.768 292.338 122.496C288.21 124.224 283.362 125.376 277.794 125.952C277.026 125.952 276.642 126.288 276.642 126.96C276.642 127.824 276.93 129.12 277.506 130.848C278.178 132.48 278.898 133.872 279.666 135.024C281.778 137.712 284.898 139.056 289.026 139.056C293.154 139.056 296.658 137.712 299.538 135.024C301.074 133.584 302.322 131.808 303.282 129.696C303.666 128.928 304.146 128.544 304.722 128.544C305.394 128.544 305.922 129.072 306.306 130.128C306.69 131.184 306.882 132 306.882 132.576ZM316.266 127.968C316.458 118.272 316.554 110.304 316.554 104.064C316.554 97.824 316.122 91.872 315.258 86.208C315.258 85.248 316.218 84.768 318.138 84.768C320.058 84.768 321.69 85.008 323.034 85.488C324.474 85.968 325.482 86.496 326.058 87.072C327.594 88.608 328.458 89.376 328.65 89.376C328.938 89.376 329.706 88.944 330.954 88.08C334.698 85.68 338.826 84.48 343.338 84.48C347.946 84.48 351.93 85.632 355.29 87.936C358.746 90.24 361.194 93.264 362.634 97.008C365.226 103.44 366.522 110.256 366.522 117.456C366.522 124.56 365.226 131.664 362.634 138.768C361.194 142.608 359.082 145.776 356.298 148.272C353.514 150.672 350.25 151.872 346.506 151.872C339.114 151.872 335.418 147.6 335.418 139.056C335.418 136.752 335.898 135.6 336.858 135.6C337.05 135.6 337.578 135.84 338.442 136.32C339.402 136.704 340.314 136.896 341.178 136.896C347.994 136.896 351.402 129.696 351.402 115.296C351.402 100.8 347.754 93.552 340.458 93.552C338.442 93.552 336.714 94.032 335.274 94.992C333.93 95.856 333.066 96.72 332.682 97.584L332.106 99.024C330.762 107.664 330.09 124.32 330.09 148.992C330.09 160.128 330.282 168.096 330.666 172.896C331.146 177.792 331.386 180.72 331.386 181.68C331.386 182.64 331.098 183.504 330.522 184.272C328.602 186.768 326.01 188.976 322.746 190.896C319.482 192.912 316.602 193.92 314.106 193.92C313.146 193.92 312.666 193.296 312.666 192.048C314.202 182.352 315.402 160.992 316.266 127.968ZM417.383 130.272C417.383 134.4 416.567 138 414.935 141.072C413.399 144.144 411.623 146.4 409.607 147.84C407.591 149.28 405.191 150.432 402.407 151.296C398.759 152.448 395.447 153.024 392.471 153.024C386.231 153.024 381.047 151.824 376.919 149.424C372.791 146.928 370.727 142.992 370.727 137.616C370.727 134.448 371.591 131.856 373.319 129.84C376.007 126.864 379.223 125.376 382.967 125.376C384.119 125.376 384.695 125.904 384.695 126.96C384.695 127.056 384.455 127.824 383.975 129.264C383.591 130.608 383.399 132.336 383.399 134.448C383.399 136.56 384.215 138.432 385.847 140.064C387.575 141.696 389.639 142.512 392.039 142.512C394.439 142.512 396.359 142.128 397.799 141.36C399.239 140.496 400.247 139.44 400.823 138.192C401.687 136.464 402.119 134.832 402.119 133.296C402.119 130.512 400.727 128.112 397.943 126.096C395.159 124.08 392.087 122.496 388.727 121.344C385.367 120.192 382.295 118.272 379.511 115.584C376.727 112.896 375.335 109.536 375.335 105.504C375.335 98.592 377.495 93.408 381.815 89.952C386.231 86.496 392.183 84.768 399.671 84.768C402.935 84.768 406.343 85.248 409.895 86.208C413.543 87.072 415.367 88.608 415.367 90.816C415.367 92.928 414.983 94.896 414.215 96.72C413.543 98.544 412.679 99.456 411.623 99.456C411.047 99.456 410.663 99.264 410.471 98.88C410.279 98.4 409.943 97.872 409.463 97.296C408.983 96.72 407.831 96 406.007 95.136C404.183 94.176 402.599 93.696 401.255 93.696C400.007 93.696 399.143 93.744 398.663 93.84C398.279 93.84 397.559 93.984 396.503 94.272C395.447 94.464 394.487 94.8 393.623 95.28C391.415 96.528 390.311 98.352 390.311 100.752C390.311 102.288 390.647 103.44 391.319 104.208C391.991 104.88 392.519 105.408 392.903 105.792C393.287 106.176 393.959 106.656 394.919 107.232C395.879 107.712 396.551 108.048 396.935 108.24C397.319 108.432 398.183 108.864 399.527 109.536C400.871 110.112 401.735 110.496 402.119 110.688C412.295 115.488 417.383 122.016 417.383 130.272Z"/>
</mask>
<path d="M151.453 127.968C151.645 118.272 151.741 110.304 151.741 104.064C151.741 97.824 151.309 91.872 150.445 86.208C150.445 85.248 151.405 84.768 153.325 84.768C155.245 84.768 156.877 85.008 158.221 85.488C159.661 85.968 160.669 86.496 161.245 87.072C162.781 88.608 163.645 89.376 163.837 89.376C164.125 89.376 164.893 88.944 166.141 88.08C169.885 85.68 174.013 84.48 178.525 84.48C183.133 84.48 187.117 85.632 190.477 87.936C193.933 90.24 196.381 93.264 197.821 97.008C200.413 103.44 201.709 110.256 201.709 117.456C201.709 124.56 200.413 131.664 197.821 138.768C196.381 142.608 194.269 145.776 191.485 148.272C188.701 150.672 185.437 151.872 181.693 151.872C174.301 151.872 170.605 147.6 170.605 139.056C170.605 136.752 171.085 135.6 172.045 135.6C172.237 135.6 172.765 135.84 173.629 136.32C174.589 136.704 175.501 136.896 176.365 136.896C183.181 136.896 186.589 129.696 186.589 115.296C186.589 100.8 182.941 93.552 175.645 93.552C173.629 93.552 171.901 94.032 170.461 94.992C169.117 95.856 168.253 96.72 167.869 97.584L167.293 99.024C165.949 107.664 165.277 124.32 165.277 148.992C165.277 160.128 165.469 168.096 165.853 172.896C166.333 177.792 166.573 180.72 166.573 181.68C166.573 182.64 166.285 183.504 165.709 184.272C163.789 186.768 161.197 188.976 157.933 190.896C154.669 192.912 151.789 193.92 149.293 193.92C148.333 193.92 147.853 193.296 147.853 192.048C149.389 182.352 150.589 160.992 151.453 127.968ZM222.474 113.424L222.618 117.024C222.618 117.6 223.002 117.888 223.77 117.888C226.842 117.6 229.53 116.832 231.834 115.584C234.138 114.24 235.866 112.752 237.018 111.12C239.322 107.568 240.57 104.496 240.762 101.904L240.906 100.176C240.906 94.992 238.842 92.4 234.714 92.4C231.642 92.4 229.146 93.744 227.226 96.432C224.058 100.656 222.474 106.32 222.474 113.424ZM253.866 132.576C253.866 136.224 253.098 139.44 251.562 142.224C250.122 144.912 248.442 146.928 246.522 148.272C244.698 149.52 242.538 150.528 240.042 151.296C236.874 152.256 233.85 152.736 230.97 152.736C222.906 152.736 216.954 149.712 213.114 143.664C209.274 137.616 207.354 129.936 207.354 120.624C207.354 111.216 209.706 102.864 214.41 95.568C219.21 88.272 226.362 84.624 235.866 84.624C244.506 84.624 250.362 87.648 253.434 93.696C254.682 96 255.306 98.208 255.306 100.32C255.306 102.336 255.21 103.968 255.018 105.216C254.826 106.368 254.154 108.144 253.002 110.544C251.85 112.944 250.314 115.104 248.394 117.024C246.474 118.944 243.45 120.768 239.322 122.496C235.194 124.224 230.346 125.376 224.778 125.952C224.01 125.952 223.626 126.288 223.626 126.96C223.626 127.824 223.914 129.12 224.49 130.848C225.162 132.48 225.882 133.872 226.65 135.024C228.762 137.712 231.882 139.056 236.01 139.056C240.138 139.056 243.642 137.712 246.522 135.024C248.058 133.584 249.306 131.808 250.266 129.696C250.65 128.928 251.13 128.544 251.706 128.544C252.378 128.544 252.906 129.072 253.29 130.128C253.674 131.184 253.866 132 253.866 132.576ZM275.49 113.424L275.634 117.024C275.634 117.6 276.018 117.888 276.786 117.888C279.858 117.6 282.546 116.832 284.85 115.584C287.154 114.24 288.882 112.752 290.034 111.12C292.338 107.568 293.586 104.496 293.778 101.904L293.922 100.176C293.922 94.992 291.858 92.4 287.73 92.4C284.658 92.4 282.162 93.744 280.242 96.432C277.074 100.656 275.49 106.32 275.49 113.424ZM306.882 132.576C306.882 136.224 306.114 139.44 304.578 142.224C303.138 144.912 301.458 146.928 299.538 148.272C297.714 149.52 295.554 150.528 293.058 151.296C289.89 152.256 286.866 152.736 283.986 152.736C275.922 152.736 269.97 149.712 266.13 143.664C262.29 137.616 260.37 129.936 260.37 120.624C260.37 111.216 262.722 102.864 267.426 95.568C272.226 88.272 279.378 84.624 288.882 84.624C297.522 84.624 303.378 87.648 306.45 93.696C307.698 96 308.322 98.208 308.322 100.32C308.322 102.336 308.226 103.968 308.034 105.216C307.842 106.368 307.17 108.144 306.018 110.544C304.866 112.944 303.33 115.104 301.41 117.024C299.49 118.944 296.466 120.768 292.338 122.496C288.21 124.224 283.362 125.376 277.794 125.952C277.026 125.952 276.642 126.288 276.642 126.96C276.642 127.824 276.93 129.12 277.506 130.848C278.178 132.48 278.898 133.872 279.666 135.024C281.778 137.712 284.898 139.056 289.026 139.056C293.154 139.056 296.658 137.712 299.538 135.024C301.074 133.584 302.322 131.808 303.282 129.696C303.666 128.928 304.146 128.544 304.722 128.544C305.394 128.544 305.922 129.072 306.306 130.128C306.69 131.184 306.882 132 306.882 132.576ZM316.266 127.968C316.458 118.272 316.554 110.304 316.554 104.064C316.554 97.824 316.122 91.872 315.258 86.208C315.258 85.248 316.218 84.768 318.138 84.768C320.058 84.768 321.69 85.008 323.034 85.488C324.474 85.968 325.482 86.496 326.058 87.072C327.594 88.608 328.458 89.376 328.65 89.376C328.938 89.376 329.706 88.944 330.954 88.08C334.698 85.68 338.826 84.48 343.338 84.48C347.946 84.48 351.93 85.632 355.29 87.936C358.746 90.24 361.194 93.264 362.634 97.008C365.226 103.44 366.522 110.256 366.522 117.456C366.522 124.56 365.226 131.664 362.634 138.768C361.194 142.608 359.082 145.776 356.298 148.272C353.514 150.672 350.25 151.872 346.506 151.872C339.114 151.872 335.418 147.6 335.418 139.056C335.418 136.752 335.898 135.6 336.858 135.6C337.05 135.6 337.578 135.84 338.442 136.32C339.402 136.704 340.314 136.896 341.178 136.896C347.994 136.896 351.402 129.696 351.402 115.296C351.402 100.8 347.754 93.552 340.458 93.552C338.442 93.552 336.714 94.032 335.274 94.992C333.93 95.856 333.066 96.72 332.682 97.584L332.106 99.024C330.762 107.664 330.09 124.32 330.09 148.992C330.09 160.128 330.282 168.096 330.666 172.896C331.146 177.792 331.386 180.72 331.386 181.68C331.386 182.64 331.098 183.504 330.522 184.272C328.602 186.768 326.01 188.976 322.746 190.896C319.482 192.912 316.602 193.92 314.106 193.92C313.146 193.92 312.666 193.296 312.666 192.048C314.202 182.352 315.402 160.992 316.266 127.968ZM417.383 130.272C417.383 134.4 416.567 138 414.935 141.072C413.399 144.144 411.623 146.4 409.607 147.84C407.591 149.28 405.191 150.432 402.407 151.296C398.759 152.448 395.447 153.024 392.471 153.024C386.231 153.024 381.047 151.824 376.919 149.424C372.791 146.928 370.727 142.992 370.727 137.616C370.727 134.448 371.591 131.856 373.319 129.84C376.007 126.864 379.223 125.376 382.967 125.376C384.119 125.376 384.695 125.904 384.695 126.96C384.695 127.056 384.455 127.824 383.975 129.264C383.591 130.608 383.399 132.336 383.399 134.448C383.399 136.56 384.215 138.432 385.847 140.064C387.575 141.696 389.639 142.512 392.039 142.512C394.439 142.512 396.359 142.128 397.799 141.36C399.239 140.496 400.247 139.44 400.823 138.192C401.687 136.464 402.119 134.832 402.119 133.296C402.119 130.512 400.727 128.112 397.943 126.096C395.159 124.08 392.087 122.496 388.727 121.344C385.367 120.192 382.295 118.272 379.511 115.584C376.727 112.896 375.335 109.536 375.335 105.504C375.335 98.592 377.495 93.408 381.815 89.952C386.231 86.496 392.183 84.768 399.671 84.768C402.935 84.768 406.343 85.248 409.895 86.208C413.543 87.072 415.367 88.608 415.367 90.816C415.367 92.928 414.983 94.896 414.215 96.72C413.543 98.544 412.679 99.456 411.623 99.456C411.047 99.456 410.663 99.264 410.471 98.88C410.279 98.4 409.943 97.872 409.463 97.296C408.983 96.72 407.831 96 406.007 95.136C404.183 94.176 402.599 93.696 401.255 93.696C400.007 93.696 399.143 93.744 398.663 93.84C398.279 93.84 397.559 93.984 396.503 94.272C395.447 94.464 394.487 94.8 393.623 95.28C391.415 96.528 390.311 98.352 390.311 100.752C390.311 102.288 390.647 103.44 391.319 104.208C391.991 104.88 392.519 105.408 392.903 105.792C393.287 106.176 393.959 106.656 394.919 107.232C395.879 107.712 396.551 108.048 396.935 108.24C397.319 108.432 398.183 108.864 399.527 109.536C400.871 110.112 401.735 110.496 402.119 110.688C412.295 115.488 417.383 122.016 417.383 130.272Z" fill="url(#paint0_linear_136_247)"/>
<path d="M151.453 127.968L151.813 127.977L151.813 127.975L151.453 127.968ZM150.445 86.208H150.085V86.2353L150.089 86.2623L150.445 86.208ZM158.221 85.488L158.1 85.8271L158.107 85.8295L158.221 85.488ZM161.245 87.072L160.991 87.3266L161.245 87.072ZM166.141 88.08L165.947 87.7767L165.936 87.784L166.141 88.08ZM190.477 87.936L190.274 88.2329L190.277 88.2355L190.477 87.936ZM197.821 97.008L197.485 97.1372L197.487 97.1426L197.821 97.008ZM197.821 138.768L198.158 138.894L198.159 138.891L197.821 138.768ZM191.485 148.272L191.72 148.545L191.725 148.54L191.485 148.272ZM173.629 136.32L173.454 136.635L173.474 136.646L173.495 136.654L173.629 136.32ZM170.461 94.992L170.656 95.2949L170.661 95.2915L170.461 94.992ZM167.869 97.584L167.54 97.4377L167.535 97.4503L167.869 97.584ZM167.293 99.024L166.959 98.8903L166.944 98.9283L166.937 98.9687L167.293 99.024ZM165.853 172.896L165.494 172.925L165.495 172.931L165.853 172.896ZM165.709 184.272L165.994 184.492L165.997 184.488L165.709 184.272ZM157.933 190.896L157.751 190.586L157.744 190.59L157.933 190.896ZM147.853 192.048L147.498 191.992L147.493 192.02V192.048H147.853ZM151.813 127.975C152.005 118.278 152.101 110.307 152.101 104.064H151.381C151.381 110.301 151.285 118.266 151.093 127.961L151.813 127.975ZM152.101 104.064C152.101 97.8074 151.668 91.8372 150.801 86.1537L150.089 86.2623C150.95 91.9068 151.381 97.8406 151.381 104.064H152.101ZM150.805 86.208C150.805 86.031 150.848 85.8922 150.925 85.7777C151.002 85.661 151.129 85.5486 151.326 85.45C151.731 85.2476 152.383 85.128 153.325 85.128V84.408C152.347 84.408 151.559 84.5284 151.004 84.806C150.721 84.9474 150.488 85.135 150.326 85.3783C150.162 85.6238 150.085 85.905 150.085 86.208H150.805ZM153.325 85.128C155.217 85.128 156.806 85.3648 158.1 85.827L158.342 85.149C156.949 84.6512 155.273 84.408 153.325 84.408V85.128ZM158.107 85.8295C159.532 86.3046 160.475 86.8111 160.991 87.3266L161.5 86.8174C160.863 86.1809 159.79 85.6314 158.335 85.1465L158.107 85.8295ZM160.991 87.3266C161.76 88.096 162.366 88.678 162.806 89.0691C163.025 89.2639 163.209 89.4169 163.355 89.5231C163.428 89.5759 163.498 89.6226 163.564 89.6576C163.615 89.6848 163.718 89.736 163.837 89.736V89.016C163.909 89.016 163.942 89.0432 163.903 89.0223C163.879 89.0094 163.838 88.9841 163.779 88.9408C163.661 88.8551 163.497 88.7201 163.284 88.5309C162.86 88.154 162.266 87.584 161.5 86.8174L160.991 87.3266ZM163.837 89.736C163.982 89.736 164.138 89.686 164.279 89.6282C164.43 89.5664 164.607 89.4776 164.806 89.3658C165.204 89.1418 165.718 88.8105 166.346 88.376L165.936 87.784C165.316 88.2135 164.822 88.5302 164.453 88.7382C164.267 88.8424 164.12 88.9156 164.007 88.9618C163.884 89.012 163.836 89.016 163.837 89.016V89.736ZM166.335 88.3831C170.021 86.0208 174.081 84.84 178.525 84.84V84.12C173.945 84.12 169.75 85.3392 165.947 87.7769L166.335 88.3831ZM178.525 84.84C183.07 84.84 186.981 85.9753 190.274 88.2329L190.681 87.6391C187.253 85.2887 183.196 84.12 178.525 84.12V84.84ZM190.277 88.2355C193.674 90.4998 196.073 93.4653 197.485 97.1372L198.157 96.8788C196.689 93.0627 194.192 89.9802 190.677 87.6365L190.277 88.2355ZM197.487 97.1426C200.061 103.53 201.349 110.3 201.349 117.456H202.069C202.069 110.212 200.765 103.35 198.155 96.8734L197.487 97.1426ZM201.349 117.456C201.349 124.515 200.061 131.578 197.483 138.645L198.159 138.891C200.765 131.75 202.069 124.605 202.069 117.456H201.349ZM197.484 138.642C196.062 142.433 193.982 145.55 191.245 148.004L191.725 148.54C194.557 146.002 196.7 142.783 198.158 138.894L197.484 138.642ZM191.25 147.999C188.533 150.342 185.353 151.512 181.693 151.512V152.232C185.522 152.232 188.87 151.002 191.72 148.545L191.25 147.999ZM181.693 151.512C178.067 151.512 175.409 150.467 173.649 148.432C171.881 146.388 170.965 143.284 170.965 139.056H170.245C170.245 143.372 171.177 146.676 173.105 148.904C175.041 151.141 177.927 152.232 181.693 152.232V151.512ZM170.965 139.056C170.965 137.918 171.085 137.112 171.297 136.602C171.402 136.351 171.521 136.192 171.64 136.097C171.753 136.006 171.883 135.96 172.045 135.96V135.24C171.727 135.24 171.437 135.338 171.19 135.535C170.949 135.728 170.768 136.001 170.633 136.326C170.365 136.968 170.245 137.89 170.245 139.056H170.965ZM172.045 135.96C172.033 135.96 172.056 135.959 172.138 135.987C172.212 136.011 172.31 136.051 172.436 136.108C172.687 136.222 173.026 136.397 173.454 136.635L173.804 136.005C173.368 135.763 173.011 135.578 172.734 135.452C172.596 135.389 172.472 135.339 172.366 135.303C172.268 135.271 172.153 135.24 172.045 135.24V135.96ZM173.495 136.654C174.49 137.052 175.447 137.256 176.365 137.256V136.536C175.555 136.536 174.688 136.356 173.763 135.986L173.495 136.654ZM176.365 137.256C178.136 137.256 179.701 136.787 181.045 135.84C182.386 134.896 183.487 133.491 184.359 131.65C186.097 127.977 186.949 122.513 186.949 115.296H186.229C186.229 122.479 185.377 127.815 183.708 131.342C182.875 133.101 181.846 134.396 180.631 135.252C179.419 136.105 178.002 136.536 176.365 136.536V137.256ZM186.949 115.296C186.949 108.029 186.037 102.526 184.175 98.8261C183.241 96.9713 182.063 95.5588 180.632 94.6109C179.198 93.6615 177.532 93.192 175.645 93.192V93.912C177.407 93.912 178.932 94.3485 180.234 95.2111C181.539 96.0752 182.641 97.3807 183.532 99.1498C185.318 102.698 186.229 108.067 186.229 115.296H186.949ZM175.645 93.192C173.57 93.192 171.77 93.6869 170.261 94.6925L170.661 95.2915C172.032 94.3771 173.688 93.912 175.645 93.912V93.192ZM170.266 94.6892C168.9 95.5678 167.966 96.4791 167.54 97.4378L168.198 97.7302C168.54 96.9609 169.335 96.1442 170.656 95.2948L170.266 94.6892ZM167.535 97.4503L166.959 98.8903L167.627 99.1577L168.203 97.7177L167.535 97.4503ZM166.937 98.9687C165.588 107.64 164.917 124.323 164.917 148.992H165.637C165.637 124.317 166.31 107.688 167.649 99.0793L166.937 98.9687ZM164.917 148.992C164.917 160.128 165.109 168.109 165.494 172.925L166.212 172.867C165.829 168.083 165.637 160.128 165.637 148.992H164.917ZM165.495 172.931C165.976 177.837 166.213 180.742 166.213 181.68H166.933C166.933 180.698 166.69 177.748 166.211 172.861L165.495 172.931ZM166.213 181.68C166.213 182.562 165.95 183.35 165.421 184.056L165.997 184.488C166.62 183.658 166.933 182.718 166.933 181.68H166.213ZM165.424 184.053C163.537 186.505 160.983 188.684 157.751 190.586L158.116 191.206C161.412 189.268 164.041 187.031 165.994 184.492L165.424 184.053ZM157.744 190.59C154.509 192.588 151.696 193.56 149.293 193.56V194.28C151.883 194.28 154.83 193.236 158.122 191.202L157.744 190.59ZM149.293 193.56C148.898 193.56 148.655 193.436 148.498 193.232C148.328 193.011 148.213 192.636 148.213 192.048H147.493C147.493 192.708 147.618 193.269 147.928 193.671C148.251 194.092 148.729 194.28 149.293 194.28V193.56ZM148.209 192.104C149.749 182.381 150.949 160.995 151.813 127.977L151.093 127.959C150.229 160.989 149.029 182.324 147.498 191.992L148.209 192.104ZM222.474 113.424H222.114V113.431L222.115 113.438L222.474 113.424ZM222.618 117.024H222.978V117.017L222.978 117.01L222.618 117.024ZM223.77 117.888V118.248H223.787L223.804 118.246L223.77 117.888ZM231.834 115.584L232.006 115.901L232.016 115.895L231.834 115.584ZM237.018 111.12L237.313 111.328L237.32 111.316L237.018 111.12ZM240.762 101.904L240.404 101.874L240.403 101.877L240.762 101.904ZM240.906 100.176L241.265 100.206L241.266 100.191V100.176H240.906ZM227.226 96.432L227.514 96.6481L227.519 96.6412L227.226 96.432ZM251.562 142.224L251.247 142.05L251.245 142.054L251.562 142.224ZM246.522 148.272L246.726 148.569L246.729 148.567L246.522 148.272ZM240.042 151.296L240.147 151.641L240.148 151.64L240.042 151.296ZM213.114 143.664L213.418 143.471L213.114 143.664ZM214.41 95.568L214.11 95.3701L214.108 95.3729L214.41 95.568ZM253.434 93.696L253.113 93.8591L253.118 93.8675L253.434 93.696ZM255.018 105.216L255.373 105.275L255.374 105.271L255.018 105.216ZM248.394 117.024L248.14 116.769L248.394 117.024ZM239.322 122.496L239.183 122.164L239.322 122.496ZM224.778 125.952V126.312H224.797L224.815 126.31L224.778 125.952ZM224.49 130.848L224.149 130.962L224.153 130.974L224.157 130.985L224.49 130.848ZM226.65 135.024L226.351 135.224L226.359 135.235L226.367 135.246L226.65 135.024ZM246.522 135.024L246.768 135.287L246.769 135.287L246.522 135.024ZM250.266 129.696L249.944 129.535L249.939 129.547L250.266 129.696ZM253.29 130.128L253.629 130.005L253.29 130.128ZM222.115 113.438L222.259 117.038L222.978 117.01L222.834 113.41L222.115 113.438ZM222.258 117.024C222.258 117.4 222.389 117.734 222.69 117.96C222.972 118.171 223.352 118.248 223.77 118.248V117.528C223.421 117.528 223.225 117.461 223.122 117.384C223.04 117.322 222.978 117.224 222.978 117.024H222.258ZM223.804 118.246C226.916 117.955 229.652 117.175 232.006 115.901L231.663 115.267C229.408 116.489 226.769 117.245 223.737 117.53L223.804 118.246ZM232.016 115.895C234.35 114.533 236.123 113.013 237.312 111.328L236.724 110.912C235.61 112.491 233.927 113.947 231.653 115.273L232.016 115.895ZM237.32 111.316C239.639 107.742 240.923 104.61 241.121 101.931L240.403 101.877C240.218 104.382 239.006 107.394 236.716 110.924L237.32 111.316ZM241.121 101.934L241.265 100.206L240.548 100.146L240.404 101.874L241.121 101.934ZM241.266 100.176C241.266 97.5458 240.744 95.5066 239.64 94.1197C238.523 92.7172 236.858 92.04 234.714 92.04V92.76C236.698 92.76 238.13 93.3788 239.077 94.5683C240.036 95.7734 240.546 97.6222 240.546 100.176H241.266ZM234.714 92.04C231.516 92.04 228.915 93.4485 226.933 96.2228L227.519 96.6412C229.378 94.0395 231.769 92.76 234.714 92.76V92.04ZM226.938 96.216C223.71 100.521 222.114 106.269 222.114 113.424H222.834C222.834 106.371 224.407 100.791 227.514 96.648L226.938 96.216ZM253.506 132.576C253.506 136.172 252.75 139.327 251.247 142.05L251.878 142.398C253.447 139.553 254.226 136.276 254.226 132.576H253.506ZM251.245 142.054C249.824 144.707 248.178 146.674 246.316 147.977L246.729 148.567C248.707 147.182 250.421 145.117 251.88 142.394L251.245 142.054ZM246.319 147.975C244.53 149.199 242.404 150.193 239.936 150.952L240.148 151.64C242.673 150.863 244.867 149.841 246.726 148.569L246.319 147.975ZM239.938 150.951C236.799 151.903 233.81 152.376 230.97 152.376V153.096C233.891 153.096 236.95 152.609 240.147 151.641L239.938 150.951ZM230.97 152.376C223.011 152.376 217.183 149.4 213.418 143.471L212.81 143.857C216.726 150.024 222.801 153.096 230.97 153.096V152.376ZM213.418 143.471C209.624 137.496 207.714 129.888 207.714 120.624H206.994C206.994 129.984 208.924 137.736 212.81 143.857L213.418 143.471ZM207.714 120.624C207.714 111.279 210.05 102.996 214.713 95.7631L214.108 95.3729C209.363 102.732 206.994 111.153 206.994 120.624H207.714ZM214.711 95.7659C219.438 88.5812 226.471 84.984 235.866 84.984V84.264C226.254 84.264 218.983 87.9628 214.11 95.3701L214.711 95.7659ZM235.866 84.984C244.415 84.984 250.12 87.9666 253.113 93.859L253.755 93.533C250.604 87.3294 244.598 84.264 235.866 84.264V84.984ZM253.118 93.8675C254.344 96.1313 254.946 98.2806 254.946 100.32H255.666C255.666 98.1354 255.021 95.8687 253.751 93.5245L253.118 93.8675ZM254.946 100.32C254.946 102.327 254.851 103.939 254.663 105.161L255.374 105.271C255.57 103.997 255.666 102.345 255.666 100.32H254.946ZM254.663 105.157C254.48 106.254 253.829 107.99 252.678 110.388L253.327 110.7C254.48 108.298 255.172 106.482 255.373 105.275L254.663 105.157ZM252.678 110.388C251.544 112.751 250.032 114.878 248.14 116.769L248.649 117.279C250.597 115.33 252.157 113.137 253.327 110.7L252.678 110.388ZM248.14 116.769C246.268 118.642 243.293 120.444 239.183 122.164L239.461 122.828C243.608 121.092 246.681 119.246 248.649 117.279L248.14 116.769ZM239.183 122.164C235.095 123.875 230.283 125.021 224.741 125.594L224.815 126.31C230.41 125.731 235.294 124.573 239.461 122.828L239.183 122.164ZM224.778 125.592C224.35 125.592 223.961 125.685 223.677 125.933C223.384 126.189 223.266 126.555 223.266 126.96H223.986C223.986 126.693 224.06 126.555 224.151 126.475C224.252 126.387 224.439 126.312 224.778 126.312V125.592ZM223.266 126.96C223.266 127.886 223.571 129.229 224.149 130.962L224.832 130.734C224.258 129.011 223.986 127.762 223.986 126.96H223.266ZM224.157 130.985C224.836 132.633 225.567 134.047 226.351 135.224L226.95 134.824C226.198 133.697 225.489 132.327 224.823 130.711L224.157 130.985ZM226.367 135.246C228.562 138.04 231.797 139.416 236.01 139.416V138.696C231.967 138.696 228.963 137.384 226.933 134.802L226.367 135.246ZM236.01 139.416C240.225 139.416 243.818 138.041 246.768 135.287L246.277 134.761C243.467 137.383 240.052 138.696 236.01 138.696V139.416ZM246.769 135.287C248.342 133.811 249.617 131.995 250.594 129.845L249.939 129.547C248.996 131.621 247.774 133.357 246.276 134.761L246.769 135.287ZM250.588 129.857C250.945 129.144 251.328 128.904 251.706 128.904V128.184C250.932 128.184 250.356 128.712 249.944 129.535L250.588 129.857ZM251.706 128.904C252.138 128.904 252.581 129.23 252.952 130.251L253.629 130.005C253.232 128.914 252.619 128.184 251.706 128.184V128.904ZM252.952 130.251C253.333 131.298 253.506 132.065 253.506 132.576H254.226C254.226 131.935 254.016 131.07 253.629 130.005L252.952 130.251ZM275.49 113.424H275.13V113.431L275.13 113.438L275.49 113.424ZM275.634 117.024H275.994V117.017L275.994 117.01L275.634 117.024ZM276.786 117.888V118.248H276.803L276.82 118.246L276.786 117.888ZM284.85 115.584L285.022 115.901L285.031 115.895L284.85 115.584ZM290.034 111.12L290.328 111.328L290.336 111.316L290.034 111.12ZM293.778 101.904L293.419 101.874L293.419 101.877L293.778 101.904ZM293.922 100.176L294.281 100.206L294.282 100.191V100.176H293.922ZM280.242 96.432L280.53 96.6481L280.535 96.6412L280.242 96.432ZM304.578 142.224L304.263 142.05L304.261 142.054L304.578 142.224ZM299.538 148.272L299.741 148.569L299.744 148.567L299.538 148.272ZM293.058 151.296L293.162 151.641L293.164 151.64L293.058 151.296ZM266.13 143.664L266.434 143.471L266.13 143.664ZM267.426 95.568L267.125 95.3701L267.123 95.3729L267.426 95.568ZM306.45 93.696L306.129 93.8591L306.133 93.8675L306.45 93.696ZM308.034 105.216L308.389 105.275L308.39 105.271L308.034 105.216ZM301.41 117.024L301.155 116.769L301.41 117.024ZM292.338 122.496L292.199 122.164L292.338 122.496ZM277.794 125.952V126.312H277.813L277.831 126.31L277.794 125.952ZM277.506 130.848L277.164 130.962L277.168 130.974L277.173 130.985L277.506 130.848ZM279.666 135.024L279.366 135.224L279.374 135.235L279.383 135.246L279.666 135.024ZM299.538 135.024L299.784 135.287L299.784 135.287L299.538 135.024ZM303.282 129.696L302.96 129.535L302.954 129.547L303.282 129.696ZM306.306 130.128L306.644 130.005L306.306 130.128ZM275.13 113.438L275.274 117.038L275.994 117.01L275.85 113.41L275.13 113.438ZM275.274 117.024C275.274 117.4 275.405 117.734 275.706 117.96C275.988 118.171 276.367 118.248 276.786 118.248V117.528C276.437 117.528 276.24 117.461 276.138 117.384C276.055 117.322 275.994 117.224 275.994 117.024H275.274ZM276.82 118.246C279.931 117.955 282.668 117.175 285.021 115.901L284.679 115.267C282.424 116.489 279.785 117.245 276.752 117.53L276.82 118.246ZM285.031 115.895C287.366 114.533 289.138 113.013 290.328 111.328L289.74 110.912C288.626 112.491 286.942 113.947 284.669 115.273L285.031 115.895ZM290.336 111.316C292.654 107.742 293.939 104.61 294.137 101.931L293.419 101.877C293.233 104.382 292.022 107.394 289.732 110.924L290.336 111.316ZM294.137 101.934L294.281 100.206L293.563 100.146L293.419 101.874L294.137 101.934ZM294.282 100.176C294.282 97.5458 293.76 95.5066 292.656 94.1197C291.539 92.7172 289.874 92.04 287.73 92.04V92.76C289.714 92.76 291.145 93.3788 292.092 94.5683C293.052 95.7734 293.562 97.6222 293.562 100.176H294.282ZM287.73 92.04C284.532 92.04 281.931 93.4485 279.949 96.2228L280.535 96.6412C282.393 94.0395 284.784 92.76 287.73 92.76V92.04ZM279.954 96.216C276.725 100.521 275.13 106.269 275.13 113.424H275.85C275.85 106.371 277.423 100.791 280.53 96.648L279.954 96.216ZM306.522 132.576C306.522 136.172 305.765 139.327 304.263 142.05L304.893 142.398C306.463 139.553 307.242 136.276 307.242 132.576H306.522ZM304.261 142.054C302.84 144.707 301.194 146.674 299.332 147.977L299.744 148.567C301.722 147.182 303.436 145.117 304.895 142.394L304.261 142.054ZM299.335 147.975C297.545 149.199 295.42 150.193 292.952 150.952L293.164 151.64C295.688 150.863 297.883 149.841 299.741 148.569L299.335 147.975ZM292.954 150.951C289.814 151.903 286.826 152.376 283.986 152.376V153.096C286.906 153.096 289.965 152.609 293.162 151.641L292.954 150.951ZM283.986 152.376C276.027 152.376 270.199 149.4 266.434 143.471L265.826 143.857C269.741 150.024 275.817 153.096 283.986 153.096V152.376ZM266.434 143.471C262.64 137.496 260.73 129.888 260.73 120.624H260.01C260.01 129.984 261.94 137.736 265.826 143.857L266.434 143.471ZM260.73 120.624C260.73 111.279 263.065 102.996 267.729 95.7631L267.123 95.3729C262.379 102.732 260.01 111.153 260.01 120.624H260.73ZM267.727 95.7659C272.453 88.5812 279.486 84.984 288.882 84.984V84.264C279.27 84.264 271.999 87.9628 267.125 95.3701L267.727 95.7659ZM288.882 84.984C297.43 84.984 303.136 87.9666 306.129 93.859L306.771 93.533C303.62 87.3294 297.614 84.264 288.882 84.264V84.984ZM306.133 93.8675C307.36 96.1313 307.962 98.2806 307.962 100.32H308.682C308.682 98.1354 308.036 95.8687 306.767 93.5245L306.133 93.8675ZM307.962 100.32C307.962 102.327 307.866 103.939 307.678 105.161L308.39 105.271C308.586 103.997 308.682 102.345 308.682 100.32H307.962ZM307.679 105.157C307.496 106.254 306.845 107.99 305.693 110.388L306.343 110.7C307.495 108.298 308.188 106.482 308.389 105.275L307.679 105.157ZM305.693 110.388C304.559 112.751 303.047 114.878 301.155 116.769L301.665 117.279C303.613 115.33 305.173 113.137 306.343 110.7L305.693 110.388ZM301.155 116.769C299.283 118.642 296.308 120.444 292.199 122.164L292.477 122.828C296.624 121.092 299.697 119.246 301.665 117.279L301.155 116.769ZM292.199 122.164C288.11 123.875 283.298 125.021 277.757 125.594L277.831 126.31C283.426 125.731 288.31 124.573 292.477 122.828L292.199 122.164ZM277.794 125.592C277.365 125.592 276.977 125.685 276.693 125.933C276.4 126.189 276.282 126.555 276.282 126.96H277.002C277.002 126.693 277.076 126.555 277.167 126.475C277.267 126.387 277.455 126.312 277.794 126.312V125.592ZM276.282 126.96C276.282 127.886 276.587 129.229 277.164 130.962L277.848 130.734C277.273 129.011 277.002 127.762 277.002 126.96H276.282ZM277.173 130.985C277.852 132.633 278.582 134.047 279.366 135.224L279.966 134.824C279.214 133.697 278.504 132.327 277.839 130.711L277.173 130.985ZM279.383 135.246C281.578 138.04 284.813 139.416 289.026 139.416V138.696C284.983 138.696 281.978 137.384 279.949 134.802L279.383 135.246ZM289.026 139.416C293.24 139.416 296.834 138.041 299.784 135.287L299.292 134.761C296.482 137.383 293.068 138.696 289.026 138.696V139.416ZM299.784 135.287C301.358 133.811 302.632 131.995 303.61 129.845L302.954 129.547C302.012 131.621 300.79 133.357 299.292 134.761L299.784 135.287ZM303.604 129.857C303.961 129.144 304.344 128.904 304.722 128.904V128.184C303.948 128.184 303.371 128.712 302.96 129.535L303.604 129.857ZM304.722 128.904C305.154 128.904 305.596 129.23 305.968 130.251L306.644 130.005C306.248 128.914 305.634 128.184 304.722 128.184V128.904ZM305.968 130.251C306.348 131.298 306.522 132.065 306.522 132.576H307.242C307.242 131.935 307.032 131.07 306.644 130.005L305.968 130.251ZM316.266 127.968L316.625 127.977L316.626 127.975L316.266 127.968ZM315.258 86.208H314.898V86.2353L314.902 86.2623L315.258 86.208ZM323.034 85.488L322.913 85.8271L322.92 85.8295L323.034 85.488ZM326.058 87.072L325.803 87.3266L326.058 87.072ZM330.954 88.08L330.759 87.7767L330.749 87.784L330.954 88.08ZM355.29 87.936L355.086 88.2329L355.09 88.2355L355.29 87.936ZM362.634 97.008L362.298 97.1372L362.3 97.1426L362.634 97.008ZM362.634 138.768L362.971 138.894L362.972 138.891L362.634 138.768ZM356.298 148.272L356.533 148.545L356.538 148.54L356.298 148.272ZM338.442 136.32L338.267 136.635L338.287 136.646L338.308 136.654L338.442 136.32ZM335.274 94.992L335.468 95.2949L335.473 95.2915L335.274 94.992ZM332.682 97.584L332.352 97.4377L332.347 97.4503L332.682 97.584ZM332.106 99.024L331.771 98.8903L331.756 98.9283L331.75 98.9687L332.106 99.024ZM330.666 172.896L330.307 172.925L330.307 172.931L330.666 172.896ZM330.522 184.272L330.807 184.492L330.81 184.488L330.522 184.272ZM322.746 190.896L322.563 190.586L322.556 190.59L322.746 190.896ZM312.666 192.048L312.31 191.992L312.306 192.02V192.048H312.666ZM316.626 127.975C316.818 118.278 316.914 110.307 316.914 104.064H316.194C316.194 110.301 316.098 118.266 315.906 127.961L316.626 127.975ZM316.914 104.064C316.914 97.8074 316.48 91.8372 315.613 86.1537L314.902 86.2623C315.763 91.9068 316.194 97.8406 316.194 104.064H316.914ZM315.618 86.208C315.618 86.031 315.661 85.8922 315.737 85.7777C315.815 85.661 315.941 85.5486 316.139 85.45C316.543 85.2476 317.196 85.128 318.138 85.128V84.408C317.159 84.408 316.372 84.5284 315.817 84.806C315.534 84.9474 315.3 85.135 315.138 85.3783C314.974 85.6238 314.898 85.905 314.898 86.208H315.618ZM318.138 85.128C320.03 85.128 321.618 85.3648 322.913 85.827L323.155 85.149C321.761 84.6512 320.086 84.408 318.138 84.408V85.128ZM322.92 85.8295C324.345 86.3046 325.288 86.8111 325.803 87.3266L326.312 86.8174C325.676 86.1809 324.602 85.6314 323.147 85.1465L322.92 85.8295ZM325.803 87.3266C326.573 88.096 327.178 88.678 327.618 89.0691C327.838 89.2639 328.022 89.4169 328.168 89.5231C328.24 89.5759 328.311 89.6226 328.377 89.6576C328.428 89.6848 328.53 89.736 328.65 89.736V89.016C328.721 89.016 328.755 89.0432 328.716 89.0223C328.691 89.0094 328.651 88.9841 328.591 88.9408C328.473 88.8551 328.31 88.7201 328.097 88.5309C327.673 88.154 327.079 87.584 326.312 86.8174L325.803 87.3266ZM328.65 89.736C328.795 89.736 328.951 89.686 329.092 89.6282C329.243 89.5664 329.419 89.4776 329.618 89.3658C330.016 89.1418 330.531 88.8105 331.159 88.376L330.749 87.784C330.128 88.2135 329.635 88.5302 329.265 88.7382C329.08 88.8424 328.932 88.9156 328.819 88.9618C328.697 89.012 328.648 89.016 328.65 89.016V89.736ZM331.148 88.3831C334.833 86.0208 338.893 84.84 343.338 84.84V84.12C338.758 84.12 334.562 85.3392 330.759 87.7769L331.148 88.3831ZM343.338 84.84C347.883 84.84 351.794 85.9753 355.086 88.2329L355.493 87.6391C352.066 85.2887 348.008 84.12 343.338 84.12V84.84ZM355.09 88.2355C358.486 90.4998 360.885 93.4653 362.298 97.1372L362.97 96.8788C361.502 93.0627 359.005 89.9802 355.489 87.6365L355.09 88.2355ZM362.3 97.1426C364.874 103.53 366.162 110.3 366.162 117.456H366.882C366.882 110.212 365.577 103.35 362.968 96.8734L362.3 97.1426ZM366.162 117.456C366.162 124.515 364.874 131.578 362.295 138.645L362.972 138.891C365.577 131.75 366.882 124.605 366.882 117.456H366.162ZM362.297 138.642C360.875 142.433 358.794 145.55 356.057 148.004L356.538 148.54C359.369 146.002 361.512 142.783 362.971 138.894L362.297 138.642ZM356.063 147.999C353.345 150.342 350.165 151.512 346.506 151.512V152.232C350.334 152.232 353.682 151.002 356.533 148.545L356.063 147.999ZM346.506 151.512C342.88 151.512 340.222 150.467 338.462 148.432C336.693 146.388 335.778 143.284 335.778 139.056H335.058C335.058 143.372 335.99 146.676 337.917 148.904C339.853 151.141 342.739 152.232 346.506 152.232V151.512ZM335.778 139.056C335.778 137.918 335.898 137.112 336.11 136.602C336.215 136.351 336.333 136.192 336.453 136.097C336.566 136.006 336.696 135.96 336.858 135.96V135.24C336.54 135.24 336.249 135.338 336.003 135.535C335.762 135.728 335.581 136.001 335.445 136.326C335.178 136.968 335.058 137.89 335.058 139.056H335.778ZM336.858 135.96C336.845 135.96 336.869 135.959 336.951 135.987C337.024 136.011 337.123 136.051 337.249 136.108C337.5 136.222 337.838 136.397 338.267 136.635L338.616 136.005C338.181 135.763 337.823 135.578 337.547 135.452C337.408 135.389 337.285 135.339 337.178 135.303C337.08 135.271 336.966 135.24 336.858 135.24V135.96ZM338.308 136.654C339.302 137.052 340.26 137.256 341.178 137.256V136.536C340.367 136.536 339.501 136.356 338.575 135.986L338.308 136.654ZM341.178 137.256C342.949 137.256 344.514 136.787 345.858 135.84C347.199 134.896 348.3 133.491 349.171 131.65C350.909 127.977 351.762 122.513 351.762 115.296H351.042C351.042 122.479 350.19 127.815 348.52 131.342C347.688 133.101 346.658 134.396 345.443 135.252C344.232 136.105 342.814 136.536 341.178 136.536V137.256ZM351.762 115.296C351.762 108.029 350.849 102.526 348.987 98.8261C348.054 96.9713 346.876 95.5588 345.444 94.6109C344.011 93.6615 342.344 93.192 340.458 93.192V93.912C342.219 93.912 343.744 94.3485 345.047 95.2111C346.352 96.0752 347.454 97.3807 348.344 99.1498C350.13 102.698 351.042 108.067 351.042 115.296H351.762ZM340.458 93.192C338.383 93.192 336.582 93.6869 335.074 94.6925L335.473 95.2915C336.845 94.3771 338.501 93.912 340.458 93.912V93.192ZM335.079 94.6892C333.712 95.5678 332.779 96.4791 332.353 97.4378L333.011 97.7302C333.352 96.9609 334.147 96.1442 335.468 95.2948L335.079 94.6892ZM332.347 97.4503L331.771 98.8903L332.44 99.1577L333.016 97.7177L332.347 97.4503ZM331.75 98.9687C330.401 107.64 329.73 124.323 329.73 148.992H330.45C330.45 124.317 331.122 107.688 332.461 99.0793L331.75 98.9687ZM329.73 148.992C329.73 160.128 329.922 168.109 330.307 172.925L331.024 172.867C330.642 168.083 330.45 160.128 330.45 148.992H329.73ZM330.307 172.931C330.788 177.837 331.026 180.742 331.026 181.68H331.746C331.746 180.698 331.503 177.748 331.024 172.861L330.307 172.931ZM331.026 181.68C331.026 182.562 330.763 183.35 330.234 184.056L330.81 184.488C331.432 183.658 331.746 182.718 331.746 181.68H331.026ZM330.236 184.053C328.349 186.505 325.795 188.684 322.563 190.586L322.928 191.206C326.224 189.268 328.854 187.031 330.807 184.492L330.236 184.053ZM322.556 190.59C319.321 192.588 316.508 193.56 314.106 193.56V194.28C316.695 194.28 319.642 193.236 322.935 191.202L322.556 190.59ZM314.106 193.56C313.71 193.56 313.468 193.436 313.311 193.232C313.14 193.011 313.026 192.636 313.026 192.048H312.306C312.306 192.708 312.431 193.269 312.74 193.671C313.064 194.092 313.541 194.28 314.106 194.28V193.56ZM313.021 192.104C314.562 182.381 315.762 160.995 316.625 127.977L315.906 127.959C315.042 160.989 313.842 182.324 312.31 191.992L313.021 192.104ZM414.935 141.072L414.617 140.903L414.613 140.911L414.935 141.072ZM409.607 147.84L409.398 147.547L409.607 147.84ZM402.407 151.296L402.3 150.952L402.298 150.953L402.407 151.296ZM376.919 149.424L376.733 149.732L376.738 149.735L376.919 149.424ZM373.319 129.84L373.052 129.599L373.046 129.606L373.319 129.84ZM383.975 129.264L383.633 129.15L383.631 129.158L383.629 129.165L383.975 129.264ZM385.847 140.064L385.592 140.319L385.6 140.326L385.847 140.064ZM397.799 141.36L397.968 141.678L397.976 141.673L397.984 141.669L397.799 141.36ZM400.823 138.192L400.501 138.031L400.496 138.041L400.823 138.192ZM397.943 126.096L398.154 125.804L397.943 126.096ZM388.727 121.344L388.844 121.003L388.727 121.344ZM379.511 115.584L379.261 115.843L379.511 115.584ZM381.815 89.952L381.593 89.6685L381.59 89.6709L381.815 89.952ZM409.895 86.208L409.801 86.5557L409.812 86.5583L409.895 86.208ZM414.215 96.72L413.883 96.5803L413.88 96.5879L413.877 96.5955L414.215 96.72ZM410.471 98.88L410.137 99.0137L410.142 99.0276L410.149 99.041L410.471 98.88ZM409.463 97.296L409.739 97.0655L409.463 97.296ZM406.007 95.136L405.839 95.4546L405.846 95.4581L405.853 95.4613L406.007 95.136ZM398.663 93.84V94.2H398.699L398.733 94.193L398.663 93.84ZM396.503 94.272L396.567 94.6262L396.583 94.6234L396.598 94.6193L396.503 94.272ZM393.623 95.28L393.448 94.9653L393.446 94.9666L393.623 95.28ZM391.319 104.208L391.048 104.445L391.056 104.454L391.064 104.463L391.319 104.208ZM392.903 105.792L392.648 106.047L392.903 105.792ZM394.919 107.232L394.734 107.541L394.746 107.548L394.758 107.554L394.919 107.232ZM396.935 108.24L396.774 108.562L396.935 108.24ZM399.527 109.536L399.366 109.858L399.375 109.863L399.385 109.867L399.527 109.536ZM402.119 110.688L401.958 111.01L401.965 111.014L402.119 110.688ZM417.023 130.272C417.023 134.352 416.217 137.892 414.617 140.903L415.253 141.241C416.917 138.108 417.743 134.448 417.743 130.272H417.023ZM414.613 140.911C413.094 143.95 411.351 146.152 409.398 147.547L409.816 148.133C411.895 146.648 413.704 144.338 415.257 141.233L414.613 140.911ZM409.398 147.547C407.418 148.961 405.054 150.098 402.3 150.952L402.514 151.64C405.328 150.766 407.764 149.599 409.816 148.133L409.398 147.547ZM402.298 150.953C398.676 152.097 395.401 152.664 392.471 152.664V153.384C395.492 153.384 398.842 152.799 402.515 151.639L402.298 150.953ZM392.471 152.664C386.275 152.664 381.158 151.472 377.1 149.113L376.738 149.735C380.935 152.176 386.186 153.384 392.471 153.384V152.664ZM377.105 149.116C373.099 146.694 371.087 142.883 371.087 137.616H370.367C370.367 143.101 372.483 147.162 376.733 149.732L377.105 149.116ZM371.087 137.616C371.087 134.517 371.93 132.013 373.592 130.074L373.046 129.606C371.251 131.699 370.367 134.379 370.367 137.616H371.087ZM373.586 130.081C376.211 127.175 379.333 125.736 382.967 125.736V125.016C379.113 125.016 375.802 126.553 373.052 129.599L373.586 130.081ZM382.967 125.736C383.495 125.736 383.824 125.858 384.02 126.037C384.21 126.212 384.335 126.496 384.335 126.96H385.055C385.055 126.368 384.892 125.86 384.506 125.507C384.126 125.158 383.591 125.016 382.967 125.016V125.736ZM384.335 126.96C384.335 126.926 384.341 126.91 384.333 126.948C384.327 126.973 384.317 127.01 384.303 127.062C384.275 127.164 384.231 127.31 384.171 127.501C384.052 127.881 383.873 128.431 383.633 129.15L384.316 129.378C384.557 128.657 384.737 128.103 384.858 127.715C384.919 127.522 384.965 127.368 384.997 127.254C385.012 127.198 385.025 127.148 385.035 127.107C385.041 127.079 385.055 127.018 385.055 126.96H384.335ZM383.629 129.165C383.232 130.553 383.039 132.318 383.039 134.448H383.759C383.759 132.354 383.95 130.663 384.321 129.363L383.629 129.165ZM383.039 134.448C383.039 136.665 383.9 138.626 385.592 140.319L386.101 139.809C384.53 138.238 383.759 136.455 383.759 134.448H383.039ZM385.6 140.326C387.395 142.022 389.548 142.872 392.039 142.872V142.152C389.73 142.152 387.754 141.37 386.094 139.802L385.6 140.326ZM392.039 142.872C394.472 142.872 396.457 142.483 397.968 141.678L397.629 141.042C396.26 141.773 394.406 142.152 392.039 142.152V142.872ZM397.984 141.669C399.472 140.776 400.537 139.67 401.15 138.343L400.496 138.041C399.956 139.21 399.006 140.216 397.614 141.051L397.984 141.669ZM401.145 138.353C402.028 136.588 402.479 134.9 402.479 133.296H401.759C401.759 134.764 401.346 136.34 400.501 138.031L401.145 138.353ZM402.479 133.296C402.479 130.369 401.007 127.87 398.154 125.804L397.732 126.388C400.447 128.354 401.759 130.655 401.759 133.296H402.479ZM398.154 125.804C395.34 123.767 392.236 122.167 388.844 121.003L388.61 121.685C391.938 122.825 394.978 124.393 397.732 126.388L398.154 125.804ZM388.844 121.003C385.538 119.87 382.51 117.98 379.761 115.325L379.261 115.843C382.079 118.564 385.196 120.514 388.61 121.685L388.844 121.003ZM379.761 115.325C377.05 112.708 375.695 109.443 375.695 105.504H374.975C374.975 109.629 376.403 113.084 379.261 115.843L379.761 115.325ZM375.695 105.504C375.695 98.6715 377.826 93.6041 382.04 90.2331L381.59 89.6709C377.164 93.2119 374.975 98.5125 374.975 105.504H375.695ZM382.037 90.2355C386.371 86.8434 392.236 85.128 399.671 85.128V84.408C392.129 84.408 386.091 86.1486 381.593 89.6685L382.037 90.2355ZM399.671 85.128C402.899 85.128 406.276 85.6028 409.801 86.5555L409.989 85.8605C406.41 84.8932 402.97 84.408 399.671 84.408V85.128ZM409.812 86.5583C411.609 86.984 412.916 87.5666 413.767 88.2834C414.605 88.9892 415.007 89.8275 415.007 90.816H415.727C415.727 89.5965 415.217 88.5628 414.231 87.7326C413.258 86.9134 411.828 86.296 409.978 85.8577L409.812 86.5583ZM415.007 90.816C415.007 92.8833 414.631 94.8034 413.883 96.5803L414.547 96.8597C415.335 94.9886 415.727 92.9727 415.727 90.816H415.007ZM413.877 96.5955C413.21 98.4053 412.427 99.096 411.623 99.096V99.816C412.931 99.816 413.875 98.6827 414.553 96.8445L413.877 96.5955ZM411.623 99.096C411.129 99.096 410.903 98.939 410.793 98.719L410.149 99.041C410.423 99.589 410.965 99.816 411.623 99.816V99.096ZM410.805 98.7463C410.594 98.2193 410.234 97.6587 409.739 97.0655L409.186 97.5265C409.652 98.0853 409.963 98.5807 410.137 99.0137L410.805 98.7463ZM409.739 97.0655C409.463 96.7335 409.016 96.3853 408.43 96.0187C407.838 95.6487 407.08 95.2461 406.161 94.8107L405.853 95.4613C406.758 95.8899 407.488 96.2793 408.048 96.6293C408.613 96.9827 408.983 97.2825 409.186 97.5265L409.739 97.0655ZM406.175 94.8174C404.324 93.8434 402.68 93.336 401.255 93.336V94.056C402.517 94.056 404.042 94.5086 405.839 95.4546L406.175 94.8174ZM401.255 93.336C400.009 93.336 399.111 93.3831 398.592 93.487L398.733 94.193C399.174 94.1049 400.005 94.056 401.255 94.056V93.336ZM398.663 93.48C398.223 93.48 397.458 93.6384 396.408 93.9247L396.598 94.6193C397.66 94.3296 398.335 94.2 398.663 94.2V93.48ZM396.438 93.9178C395.347 94.1162 394.349 94.4646 393.448 94.9653L393.798 95.5947C394.624 95.1354 395.547 94.8118 396.567 94.6262L396.438 93.9178ZM393.446 94.9666C391.133 96.274 389.951 98.2134 389.951 100.752H390.671C390.671 98.4906 391.697 96.782 393.8 95.5934L393.446 94.9666ZM389.951 100.752C389.951 102.333 390.296 103.585 391.048 104.445L391.59 103.971C390.998 103.295 390.671 102.243 390.671 100.752H389.951ZM391.064 104.463C391.736 105.135 392.264 105.663 392.648 106.047L393.157 105.537C392.773 105.153 392.245 104.625 391.573 103.953L391.064 104.463ZM392.648 106.047C393.065 106.463 393.769 106.962 394.734 107.541L395.104 106.923C394.149 106.35 393.509 105.889 393.157 105.537L392.648 106.047ZM394.758 107.554C395.718 108.034 396.39 108.37 396.774 108.562L397.096 107.918C396.712 107.726 396.04 107.39 395.08 106.91L394.758 107.554ZM396.774 108.562C396.775 108.562 396.775 108.563 396.776 108.563C396.777 108.563 396.778 108.564 396.778 108.564C396.779 108.565 396.78 108.565 396.781 108.565C396.781 108.566 396.782 108.566 396.783 108.567C396.784 108.567 396.784 108.567 396.785 108.568C396.786 108.568 396.787 108.568 396.788 108.569C396.788 108.569 396.789 108.57 396.79 108.57C396.791 108.57 396.791 108.571 396.792 108.571C396.793 108.572 396.794 108.572 396.795 108.572C396.795 108.573 396.796 108.573 396.797 108.574C396.798 108.574 396.798 108.574 396.799 108.575C396.8 108.575 396.801 108.575 396.802 108.576C396.802 108.576 396.803 108.577 396.804 108.577C396.805 108.577 396.806 108.578 396.806 108.578C396.807 108.579 396.808 108.579 396.809 108.579C396.81 108.58 396.81 108.58 396.811 108.581C396.812 108.581 396.813 108.582 396.814 108.582C396.815 108.582 396.815 108.583 396.816 108.583C396.817 108.584 396.818 108.584 396.819 108.584C396.819 108.585 396.82 108.585 396.821 108.586C396.822 108.586 396.823 108.586 396.824 108.587C396.824 108.587 396.825 108.588 396.826 108.588C396.827 108.588 396.828 108.589 396.829 108.589C396.829 108.59 396.83 108.59 396.831 108.591C396.832 108.591 396.833 108.591 396.834 108.592C396.834 108.592 396.835 108.593 396.836 108.593C396.837 108.594 396.838 108.594 396.839 108.594C396.839 108.595 396.84 108.595 396.841 108.596C396.842 108.596 396.843 108.596 396.844 108.597C396.845 108.597 396.845 108.598 396.846 108.598C396.847 108.599 396.848 108.599 396.849 108.6C396.85 108.6 396.851 108.6 396.852 108.601C396.852 108.601 396.853 108.602 396.854 108.602C396.855 108.603 396.856 108.603 396.857 108.603C396.858 108.604 396.858 108.604 396.859 108.605C396.86 108.605 396.861 108.606 396.862 108.606C396.863 108.606 396.864 108.607 396.865 108.607C396.866 108.608 396.866 108.608 396.867 108.609C396.868 108.609 396.869 108.61 396.87 108.61C396.871 108.61 396.872 108.611 396.873 108.611C396.874 108.612 396.874 108.612 396.875 108.613C396.876 108.613 396.877 108.614 396.878 108.614C396.879 108.615 396.88 108.615 396.881 108.615C396.882 108.616 396.883 108.616 396.884 108.617C396.884 108.617 396.885 108.618 396.886 108.618C396.887 108.619 396.888 108.619 396.889 108.62C396.89 108.62 396.891 108.62 396.892 108.621C396.893 108.621 396.894 108.622 396.895 108.622C396.895 108.623 396.896 108.623 396.897 108.624C396.898 108.624 396.899 108.625 396.9 108.625C396.901 108.626 396.902 108.626 396.903 108.627C396.904 108.627 396.905 108.627 396.906 108.628C396.907 108.628 396.908 108.629 396.909 108.629C396.909 108.63 396.91 108.63 396.911 108.631C396.912 108.631 396.913 108.632 396.914 108.632C396.915 108.633 396.916 108.633 396.917 108.634C396.918 108.634 396.919 108.635 396.92 108.635C396.921 108.636 396.922 108.636 396.923 108.636C396.924 108.637 396.925 108.637 396.926 108.638C396.927 108.638 396.928 108.639 396.929 108.639C396.93 108.64 396.931 108.64 396.932 108.641C396.933 108.641 396.934 108.642 396.934 108.642C396.935 108.643 396.936 108.643 396.937 108.644C396.938 108.644 396.939 108.645 396.94 108.645C396.941 108.646 396.942 108.646 396.943 108.647C396.944 108.647 396.945 108.648 396.946 108.648C396.947 108.649 396.948 108.649 396.949 108.65C396.95 108.65 396.951 108.651 396.952 108.651C396.953 108.652 396.954 108.652 396.955 108.653C396.956 108.653 396.957 108.654 396.958 108.654C396.959 108.655 396.96 108.655 396.961 108.656C396.962 108.656 396.963 108.657 396.964 108.657C396.965 108.658 396.966 108.658 396.967 108.659C396.968 108.659 396.969 108.66 396.97 108.66C396.971 108.661 396.973 108.661 396.974 108.662C396.975 108.662 396.976 108.663 396.977 108.663C396.978 108.664 396.979 108.664 396.98 108.665C396.981 108.665 396.982 108.666 396.983 108.666C396.984 108.667 396.985 108.667 396.986 108.668C396.987 108.669 396.988 108.669 396.989 108.67C396.99 108.67 396.991 108.671 396.992 108.671C396.993 108.672 396.994 108.672 396.995 108.673C396.996 108.673 396.997 108.674 396.998 108.674C397 108.675 397.001 108.675 397.002 108.676C397.003 108.676 397.004 108.677 397.005 108.677C397.006 108.678 397.007 108.679 397.008 108.679C397.009 108.68 397.01 108.68 397.011 108.681C397.012 108.681 397.013 108.682 397.014 108.682C397.015 108.683 397.017 108.683 397.018 108.684C397.019 108.684 397.02 108.685 397.021 108.685C397.022 108.686 397.023 108.687 397.024 108.687C397.025 108.688 397.026 108.688 397.027 108.689C397.028 108.689 397.03 108.69 397.031 108.69C397.032 108.691 397.033 108.691 397.034 108.692C397.035 108.693 397.036 108.693 397.037 108.694C397.038 108.694 397.039 108.695 397.04 108.695C397.042 108.696 397.043 108.696 397.044 108.697C397.045 108.698 397.046 108.698 397.047 108.699C397.048 108.699 397.049 108.7 397.05 108.7C397.052 108.701 397.053 108.701 397.054 108.702C397.055 108.703 397.056 108.703 397.057 108.704C397.058 108.704 397.059 108.705 397.061 108.705C397.062 108.706 397.063 108.706 397.064 108.707C397.065 108.708 397.066 108.708 397.067 108.709C397.068 108.709 397.07 108.71 397.071 108.71C397.072 108.711 397.073 108.712 397.074 108.712C397.075 108.713 397.076 108.713 397.078 108.714C397.079 108.714 397.08 108.715 397.081 108.716C397.082 108.716 397.083 108.717 397.084 108.717C397.086 108.718 397.087 108.718 397.088 108.719C397.089 108.72 397.09 108.72 397.091 108.721C397.092 108.721 397.094 108.722 397.095 108.722C397.096 108.723 397.097 108.724 397.098 108.724C397.099 108.725 397.101 108.725 397.102 108.726C397.103 108.727 397.104 108.727 397.105 108.728C397.106 108.728 397.108 108.729 397.109 108.729C397.11 108.73 397.111 108.731 397.112 108.731C397.113 108.732 397.115 108.732 397.116 108.733C397.117 108.734 397.118 108.734 397.119 108.735C397.121 108.735 397.122 108.736 397.123 108.737C397.124 108.737 397.125 108.738 397.127 108.738C397.128 108.739 397.129 108.74 397.13 108.74C397.131 108.741 397.133 108.741 397.134 108.742C397.135 108.743 397.136 108.743 397.137 108.744C397.139 108.744 397.14 108.745 397.141 108.746C397.142 108.746 397.143 108.747 397.145 108.747C397.146 108.748 397.147 108.749 397.148 108.749C397.149 108.75 397.151 108.75 397.152 108.751C397.153 108.752 397.154 108.752 397.156 108.753C397.157 108.753 397.158 108.754 397.159 108.755C397.16 108.755 397.162 108.756 397.163 108.757C397.164 108.757 397.165 108.758 397.167 108.758C397.168 108.759 397.169 108.76 397.17 108.76C397.172 108.761 397.173 108.761 397.174 108.762C397.175 108.763 397.176 108.763 397.178 108.764C397.179 108.765 397.18 108.765 397.181 108.766C397.183 108.766 397.184 108.767 397.185 108.768C397.186 108.768 397.188 108.769 397.189 108.77C397.19 108.77 397.191 108.771 397.193 108.771C397.194 108.772 397.195 108.773 397.197 108.773C397.198 108.774 397.199 108.775 397.2 108.775C397.202 108.776 397.203 108.776 397.204 108.777C397.205 108.778 397.207 108.778 397.208 108.779C397.209 108.78 397.211 108.78 397.212 108.781C397.213 108.782 397.214 108.782 397.216 108.783C397.217 108.784 397.218 108.784 397.219 108.785C397.221 108.785 397.222 108.786 397.223 108.787C397.225 108.787 397.226 108.788 397.227 108.789C397.228 108.789 397.23 108.79 397.231 108.791C397.232 108.791 397.234 108.792 397.235 108.793C397.236 108.793 397.238 108.794 397.239 108.794C397.24 108.795 397.241 108.796 397.243 108.796C397.244 108.797 397.245 108.798 397.247 108.798C397.248 108.799 397.249 108.8 397.251 108.8C397.252 108.801 397.253 108.802 397.255 108.802C397.256 108.803 397.257 108.804 397.259 108.804C397.26 108.805 397.261 108.806 397.263 108.806C397.264 108.807 397.265 108.808 397.267 108.808C397.268 108.809 397.269 108.81 397.27 108.81C397.272 108.811 397.273 108.812 397.275 108.812C397.276 108.813 397.277 108.814 397.279 108.814C397.28 108.815 397.281 108.816 397.283 108.816C397.284 108.817 397.285 108.818 397.287 108.818C397.288 108.819 397.289 108.82 397.291 108.82C397.292 108.821 397.293 108.822 397.295 108.822C397.296 108.823 397.297 108.824 397.299 108.824C397.3 108.825 397.301 108.826 397.303 108.826C397.304 108.827 397.306 108.828 397.307 108.829C397.308 108.829 397.31 108.83 397.311 108.831C397.312 108.831 397.314 108.832 397.315 108.833C397.316 108.833 397.318 108.834 397.319 108.835C397.321 108.835 397.322 108.836 397.323 108.837C397.325 108.837 397.326 108.838 397.328 108.839C397.329 108.84 397.33 108.84 397.332 108.841C397.333 108.842 397.334 108.842 397.336 108.843C397.337 108.844 397.339 108.844 397.34 108.845C397.341 108.846 397.343 108.846 397.344 108.847C397.346 108.848 397.347 108.849 397.348 108.849C397.35 108.85 397.351 108.851 397.353 108.851C397.354 108.852 397.355 108.853 397.357 108.853C397.358 108.854 397.36 108.855 397.361 108.856C397.362 108.856 397.364 108.857 397.365 108.858C397.367 108.858 397.368 108.859 397.37 108.86C397.371 108.861 397.372 108.861 397.374 108.862C397.375 108.863 397.377 108.863 397.378 108.864C397.38 108.865 397.381 108.866 397.382 108.866C397.384 108.867 397.385 108.868 397.387 108.868C397.388 108.869 397.39 108.87 397.391 108.871C397.392 108.871 397.394 108.872 397.395 108.873C397.397 108.873 397.398 108.874 397.4 108.875C397.401 108.876 397.403 108.876 397.404 108.877C397.405 108.878 397.407 108.879 397.408 108.879C397.41 108.88 397.411 108.881 397.413 108.881C397.414 108.882 397.416 108.883 397.417 108.884C397.419 108.884 397.42 108.885 397.422 108.886C397.423 108.887 397.424 108.887 397.426 108.888C397.427 108.889 397.429 108.889 397.43 108.89C397.432 108.891 397.433 108.892 397.435 108.892C397.436 108.893 397.438 108.894 397.439 108.895C397.441 108.895 397.442 108.896 397.444 108.897C397.445 108.898 397.447 108.898 397.448 108.899C397.45 108.9 397.451 108.901 397.453 108.901C397.454 108.902 397.456 108.903 397.457 108.904C397.458 108.904 397.46 108.905 397.461 108.906C397.463 108.907 397.464 108.907 397.466 108.908C397.467 108.909 397.469 108.91 397.47 108.91C397.472 108.911 397.473 108.912 397.475 108.913C397.477 108.913 397.478 108.914 397.48 108.915C397.481 108.916 397.483 108.916 397.484 108.917C397.486 108.918 397.487 108.919 397.489 108.919C397.49 108.92 397.492 108.921 397.493 108.922C397.495 108.922 397.496 108.923 397.498 108.924C397.499 108.925 397.501 108.925 397.502 108.926C397.504 108.927 397.505 108.928 397.507 108.929C397.508 108.929 397.51 108.93 397.512 108.931C397.513 108.932 397.515 108.932 397.516 108.933C397.518 108.934 397.519 108.935 397.521 108.935C397.522 108.936 397.524 108.937 397.525 108.938C397.527 108.939 397.529 108.939 397.53 108.94C397.532 108.941 397.533 108.942 397.535 108.942C397.536 108.943 397.538 108.944 397.539 108.945C397.541 108.946 397.543 108.946 397.544 108.947C397.546 108.948 397.547 108.949 397.549 108.949C397.55 108.95 397.552 108.951 397.553 108.952C397.555 108.953 397.557 108.953 397.558 108.954C397.56 108.955 397.561 108.956 397.563 108.957C397.565 108.957 397.566 108.958 397.568 108.959C397.569 108.96 397.571 108.96 397.572 108.961C397.574 108.962 397.576 108.963 397.577 108.964C397.579 108.964 397.58 108.965 397.582 108.966C397.584 108.967 397.585 108.968 397.587 108.968C397.588 108.969 397.59 108.97 397.592 108.971C397.593 108.972 397.595 108.972 397.596 108.973C397.598 108.974 397.6 108.975 397.601 108.976C397.603 108.976 397.604 108.977 397.606 108.978C397.608 108.979 397.609 108.98 397.611 108.98C397.612 108.981 397.614 108.982 397.616 108.983C397.617 108.984 397.619 108.985 397.621 108.985C397.622 108.986 397.624 108.987 397.625 108.988C397.627 108.989 397.629 108.989 397.63 108.99C397.632 108.991 397.634 108.992 397.635 108.993C397.637 108.993 397.638 108.994 397.64 108.995C397.642 108.996 397.643 108.997 397.645 108.998C397.647 108.998 397.648 108.999 397.65 109C397.652 109.001 397.653 109.002 397.655 109.002C397.656 109.003 397.658 109.004 397.66 109.005C397.661 109.006 397.663 109.007 397.665 109.007C397.666 109.008 397.668 109.009 397.67 109.01C397.671 109.011 397.673 109.012 397.675 109.012C397.676 109.013 397.678 109.014 397.68 109.015C397.681 109.016 397.683 109.017 397.685 109.017C397.686 109.018 397.688 109.019 397.69 109.02C397.691 109.021 397.693 109.022 397.695 109.022C397.696 109.023 397.698 109.024 397.7 109.025C397.701 109.026 397.703 109.027 397.705 109.027C397.706 109.028 397.708 109.029 397.71 109.03C397.712 109.031 397.713 109.032 397.715 109.033C397.717 109.033 397.718 109.034 397.72 109.035C397.722 109.036 397.723 109.037 397.725 109.038C397.727 109.038 397.729 109.039 397.73 109.04C397.732 109.041 397.734 109.042 397.735 109.043C397.737 109.044 397.739 109.044 397.74 109.045C397.742 109.046 397.744 109.047 397.746 109.048C397.747 109.049 397.749 109.05 397.751 109.05C397.752 109.051 397.754 109.052 397.756 109.053C397.758 109.054 397.759 109.055 397.761 109.056C397.763 109.056 397.764 109.057 397.766 109.058C397.768 109.059 397.77 109.06 397.771 109.061C397.773 109.062 397.775 109.062 397.777 109.063C397.778 109.064 397.78 109.065 397.782 109.066C397.784 109.067 397.785 109.068 397.787 109.069C397.789 109.069 397.791 109.07 397.792 109.071C397.794 109.072 397.796 109.073 397.798 109.074C397.799 109.075 397.801 109.076 397.803 109.076C397.805 109.077 397.806 109.078 397.808 109.079C397.81 109.08 397.812 109.081 397.813 109.082C397.815 109.083 397.817 109.083 397.819 109.084C397.82 109.085 397.822 109.086 397.824 109.087C397.826 109.088 397.827 109.089 397.829 109.09C397.831 109.091 397.833 109.091 397.835 109.092C397.836 109.093 397.838 109.094 397.84 109.095C397.842 109.096 397.843 109.097 397.845 109.098C397.847 109.099 397.849 109.099 397.851 109.1C397.852 109.101 397.854 109.102 397.856 109.103C397.858 109.104 397.859 109.105 397.861 109.106C397.863 109.107 397.865 109.107 397.867 109.108C397.868 109.109 397.87 109.11 397.872 109.111C397.874 109.112 397.876 109.113 397.878 109.114C397.879 109.115 397.881 109.116 397.883 109.117C397.885 109.117 397.887 109.118 397.888 109.119C397.89 109.12 397.892 109.121 397.894 109.122C397.896 109.123 397.897 109.124 397.899 109.125C397.901 109.126 397.903 109.126 397.905 109.127C397.907 109.128 397.908 109.129 397.91 109.13C397.912 109.131 397.914 109.132 397.916 109.133C397.917 109.134 397.919 109.135 397.921 109.136C397.923 109.137 397.925 109.137 397.927 109.138C397.928 109.139 397.93 109.14 397.932 109.141C397.934 109.142 397.936 109.143 397.938 109.144C397.94 109.145 397.941 109.146 397.943 109.147C397.945 109.148 397.947 109.149 397.949 109.149C397.951 109.15 397.953 109.151 397.954 109.152C397.956 109.153 397.958 109.154 397.96 109.155C397.962 109.156 397.964 109.157 397.966 109.158C397.967 109.159 397.969 109.16 397.971 109.161C397.973 109.162 397.975 109.162 397.977 109.163C397.979 109.164 397.98 109.165 397.982 109.166C397.984 109.167 397.986 109.168 397.988 109.169C397.99 109.17 397.992 109.171 397.994 109.172C397.995 109.173 397.997 109.174 397.999 109.175C398.001 109.176 398.003 109.177 398.005 109.178C398.007 109.178 398.009 109.179 398.011 109.18C398.012 109.181 398.014 109.182 398.016 109.183C398.018 109.184 398.02 109.185 398.022 109.186C398.024 109.187 398.026 109.188 398.028 109.189C398.03 109.19 398.031 109.191 398.033 109.192C398.035 109.193 398.037 109.194 398.039 109.195C398.041 109.196 398.043 109.197 398.045 109.197C398.047 109.198 398.049 109.199 398.051 109.2C398.053 109.201 398.054 109.202 398.056 109.203C398.058 109.204 398.06 109.205 398.062 109.206C398.064 109.207 398.066 109.208 398.068 109.209C398.07 109.21 398.072 109.211 398.074 109.212C398.076 109.213 398.078 109.214 398.08 109.215C398.081 109.216 398.083 109.217 398.085 109.218C398.087 109.219 398.089 109.22 398.091 109.221C398.093 109.222 398.095 109.223 398.097 109.224C398.099 109.225 398.101 109.226 398.103 109.226C398.105 109.227 398.107 109.228 398.109 109.229C398.111 109.23 398.113 109.231 398.115 109.232C398.117 109.233 398.118 109.234 398.12 109.235C398.122 109.236 398.124 109.237 398.126 109.238C398.128 109.239 398.13 109.24 398.132 109.241C398.134 109.242 398.136 109.243 398.138 109.244C398.14 109.245 398.142 109.246 398.144 109.247C398.146 109.248 398.148 109.249 398.15 109.25C398.152 109.251 398.154 109.252 398.156 109.253C398.158 109.254 398.16 109.255 398.162 109.256C398.164 109.257 398.166 109.258 398.168 109.259C398.17 109.26 398.172 109.261 398.174 109.262C398.176 109.263 398.178 109.264 398.18 109.265C398.182 109.266 398.184 109.267 398.186 109.268C398.188 109.269 398.19 109.27 398.192 109.271C398.194 109.272 398.196 109.273 398.198 109.274C398.2 109.275 398.202 109.276 398.204 109.277C398.206 109.278 398.208 109.279 398.21 109.28C398.212 109.281 398.214 109.282 398.216 109.283C398.218 109.284 398.22 109.285 398.222 109.286C398.224 109.287 398.226 109.288 398.228 109.289C398.23 109.29 398.232 109.291 398.234 109.292C398.236 109.293 398.238 109.294 398.24 109.295C398.242 109.296 398.244 109.297 398.246 109.298C398.249 109.299 398.251 109.3 398.253 109.301C398.255 109.302 398.257 109.303 398.259 109.304C398.261 109.305 398.263 109.306 398.265 109.308C398.267 109.309 398.269 109.31 398.271 109.311C398.273 109.312 398.275 109.313 398.277 109.314C398.279 109.315 398.281 109.316 398.283 109.317C398.285 109.318 398.288 109.319 398.29 109.32C398.292 109.321 398.294 109.322 398.296 109.323C398.298 109.324 398.3 109.325 398.302 109.326C398.304 109.327 398.306 109.328 398.308 109.329C398.31 109.33 398.312 109.331 398.314 109.332C398.317 109.333 398.319 109.334 398.321 109.335C398.323 109.336 398.325 109.337 398.327 109.339C398.329 109.34 398.331 109.341 398.333 109.342C398.335 109.343 398.337 109.344 398.339 109.345C398.342 109.346 398.344 109.347 398.346 109.348C398.348 109.349 398.35 109.35 398.352 109.351C398.354 109.352 398.356 109.353 398.358 109.354C398.36 109.355 398.363 109.356 398.365 109.357C398.367 109.358 398.369 109.36 398.371 109.361C398.373 109.362 398.375 109.363 398.377 109.364C398.379 109.365 398.382 109.366 398.384 109.367C398.386 109.368 398.388 109.369 398.39 109.37C398.392 109.371 398.394 109.372 398.396 109.373C398.399 109.374 398.401 109.375 398.403 109.376C398.405 109.378 398.407 109.379 398.409 109.38C398.411 109.381 398.414 109.382 398.416 109.383C398.418 109.384 398.42 109.385 398.422 109.386C398.424 109.387 398.426 109.388 398.429 109.389C398.431 109.39 398.433 109.391 398.435 109.393C398.437 109.394 398.439 109.395 398.441 109.396C398.444 109.397 398.446 109.398 398.448 109.399C398.45 109.4 398.452 109.401 398.454 109.402C398.457 109.403 398.459 109.404 398.461 109.405C398.463 109.407 398.465 109.408 398.467 109.409C398.469 109.41 398.472 109.411 398.474 109.412C398.476 109.413 398.478 109.414 398.48 109.415C398.483 109.416 398.485 109.417 398.487 109.418C398.489 109.42 398.491 109.421 398.493 109.422C398.496 109.423 398.498 109.424 398.5 109.425C398.502 109.426 398.504 109.427 398.507 109.428C398.509 109.429 398.511 109.431 398.513 109.432C398.515 109.433 398.517 109.434 398.52 109.435C398.522 109.436 398.524 109.437 398.526 109.438C398.528 109.439 398.531 109.44 398.533 109.442C398.535 109.443 398.537 109.444 398.54 109.445C398.542 109.446 398.544 109.447 398.546 109.448C398.548 109.449 398.551 109.45 398.553 109.451C398.555 109.453 398.557 109.454 398.559 109.455C398.562 109.456 398.564 109.457 398.566 109.458C398.568 109.459 398.571 109.46 398.573 109.461C398.575 109.463 398.577 109.464 398.579 109.465C398.582 109.466 398.584 109.467 398.586 109.468C398.588 109.469 398.591 109.47 398.593 109.471C398.595 109.473 398.597 109.474 398.6 109.475C398.602 109.476 398.604 109.477 398.606 109.478C398.609 109.479 398.611 109.48 398.613 109.482C398.615 109.483 398.618 109.484 398.62 109.485C398.622 109.486 398.624 109.487 398.627 109.488C398.629 109.489 398.631 109.491 398.633 109.492C398.636 109.493 398.638 109.494 398.64 109.495C398.642 109.496 398.645 109.497 398.647 109.498C398.649 109.5 398.651 109.501 398.654 109.502C398.656 109.503 398.658 109.504 398.66 109.505C398.663 109.506 398.665 109.508 398.667 109.509C398.67 109.51 398.672 109.511 398.674 109.512C398.676 109.513 398.679 109.514 398.681 109.516C398.683 109.517 398.686 109.518 398.688 109.519C398.69 109.52 398.692 109.521 398.695 109.522C398.697 109.524 398.699 109.525 398.702 109.526C398.704 109.527 398.706 109.528 398.708 109.529C398.711 109.53 398.713 109.532 398.715 109.533C398.718 109.534 398.72 109.535 398.722 109.536C398.725 109.537 398.727 109.539 398.729 109.54C398.732 109.541 398.734 109.542 398.736 109.543C398.738 109.544 398.741 109.545 398.743 109.547C398.745 109.548 398.748 109.549 398.75 109.55C398.752 109.551 398.755 109.552 398.757 109.554C398.759 109.555 398.762 109.556 398.764 109.557C398.766 109.558 398.769 109.559 398.771 109.561C398.773 109.562 398.776 109.563 398.778 109.564C398.78 109.565 398.783 109.566 398.785 109.568C398.787 109.569 398.79 109.57 398.792 109.571C398.794 109.572 398.797 109.573 398.799 109.575C398.801 109.576 398.804 109.577 398.806 109.578C398.809 109.579 398.811 109.58 398.813 109.582C398.816 109.583 398.818 109.584 398.82 109.585C398.823 109.586 398.825 109.588 398.827 109.589C398.83 109.59 398.832 109.591 398.834 109.592C398.837 109.593 398.839 109.595 398.842 109.596C398.844 109.597 398.846 109.598 398.849 109.599C398.851 109.601 398.853 109.602 398.856 109.603C398.858 109.604 398.861 109.605 398.863 109.607C398.865 109.608 398.868 109.609 398.87 109.61C398.872 109.611 398.875 109.612 398.877 109.614C398.88 109.615 398.882 109.616 398.884 109.617C398.887 109.618 398.889 109.62 398.892 109.621C398.894 109.622 398.896 109.623 398.899 109.624C398.901 109.626 398.904 109.627 398.906 109.628C398.908 109.629 398.911 109.63 398.913 109.632C398.916 109.633 398.918 109.634 398.92 109.635C398.923 109.636 398.925 109.638 398.928 109.639C398.93 109.64 398.932 109.641 398.935 109.642C398.937 109.644 398.94 109.645 398.942 109.646C398.945 109.647 398.947 109.649 398.949 109.65C398.952 109.651 398.954 109.652 398.957 109.653C398.959 109.655 398.961 109.656 398.964 109.657C398.966 109.658 398.969 109.659 398.971 109.661C398.974 109.662 398.976 109.663 398.979 109.664C398.981 109.666 398.983 109.667 398.986 109.668C398.988 109.669 398.991 109.67 398.993 109.672C398.996 109.673 398.998 109.674 399.001 109.675C399.003 109.677 399.005 109.678 399.008 109.679C399.01 109.68 399.013 109.681 399.015 109.683C399.018 109.684 399.02 109.685 399.023 109.686C399.025 109.688 399.028 109.689 399.03 109.69C399.032 109.691 399.035 109.693 399.037 109.694C399.04 109.695 399.042 109.696 399.045 109.697C399.047 109.699 399.05 109.7 399.052 109.701C399.055 109.702 399.057 109.704 399.06 109.705C399.062 109.706 399.065 109.707 399.067 109.709C399.07 109.71 399.072 109.711 399.075 109.712C399.077 109.714 399.08 109.715 399.082 109.716C399.085 109.717 399.087 109.719 399.089 109.72C399.092 109.721 399.094 109.722 399.097 109.724C399.099 109.725 399.102 109.726 399.104 109.727C399.107 109.729 399.109 109.73 399.112 109.731C399.114 109.732 399.117 109.734 399.12 109.735C399.122 109.736 399.125 109.737 399.127 109.739C399.13 109.74 399.132 109.741 399.135 109.742C399.137 109.744 399.14 109.745 399.142 109.746C399.145 109.747 399.147 109.749 399.15 109.75C399.152 109.751 399.155 109.752 399.157 109.754C399.16 109.755 399.162 109.756 399.165 109.757C399.167 109.759 399.17 109.76 399.172 109.761C399.175 109.763 399.177 109.764 399.18 109.765C399.183 109.766 399.185 109.768 399.188 109.769C399.19 109.77 399.193 109.771 399.195 109.773C399.198 109.774 399.2 109.775 399.203 109.777C399.205 109.778 399.208 109.779 399.211 109.78C399.213 109.782 399.216 109.783 399.218 109.784C399.221 109.785 399.223 109.787 399.226 109.788C399.228 109.789 399.231 109.791 399.234 109.792C399.236 109.793 399.239 109.794 399.241 109.796C399.244 109.797 399.246 109.798 399.249 109.8C399.252 109.801 399.254 109.802 399.257 109.803C399.259 109.805 399.262 109.806 399.264 109.807C399.267 109.809 399.27 109.81 399.272 109.811C399.275 109.812 399.277 109.814 399.28 109.815C399.283 109.816 399.285 109.818 399.288 109.819C399.29 109.82 399.293 109.821 399.295 109.823C399.298 109.824 399.301 109.825 399.303 109.827C399.306 109.828 399.308 109.829 399.311 109.831C399.314 109.832 399.316 109.833 399.319 109.834C399.321 109.836 399.324 109.837 399.327 109.838C399.329 109.84 399.332 109.841 399.334 109.842C399.337 109.844 399.34 109.845 399.342 109.846C399.345 109.848 399.348 109.849 399.35 109.85C399.353 109.851 399.355 109.853 399.358 109.854C399.361 109.855 399.363 109.857 399.366 109.858L399.688 109.214C399.685 109.213 399.683 109.211 399.68 109.21C399.677 109.209 399.675 109.207 399.672 109.206C399.67 109.205 399.667 109.204 399.664 109.202C399.662 109.201 399.659 109.2 399.656 109.198C399.654 109.197 399.651 109.196 399.649 109.194C399.646 109.193 399.643 109.192 399.641 109.19C399.638 109.189 399.636 109.188 399.633 109.187C399.63 109.185 399.628 109.184 399.625 109.183C399.623 109.181 399.62 109.18 399.617 109.179C399.615 109.177 399.612 109.176 399.61 109.175C399.607 109.174 399.604 109.172 399.602 109.171C399.599 109.17 399.597 109.168 399.594 109.167C399.592 109.166 399.589 109.165 399.586 109.163C399.584 109.162 399.581 109.161 399.579 109.159C399.576 109.158 399.574 109.157 399.571 109.156C399.568 109.154 399.566 109.153 399.563 109.152C399.561 109.15 399.558 109.149 399.556 109.148C399.553 109.147 399.55 109.145 399.548 109.144C399.545 109.143 399.543 109.141 399.54 109.14C399.538 109.139 399.535 109.138 399.533 109.136C399.53 109.135 399.527 109.134 399.525 109.133C399.522 109.131 399.52 109.13 399.517 109.129C399.515 109.127 399.512 109.126 399.51 109.125C399.507 109.124 399.505 109.122 399.502 109.121C399.499 109.12 399.497 109.119 399.494 109.117C399.492 109.116 399.489 109.115 399.487 109.113C399.484 109.112 399.482 109.111 399.479 109.11C399.477 109.108 399.474 109.107 399.472 109.106C399.469 109.105 399.467 109.103 399.464 109.102C399.462 109.101 399.459 109.1 399.457 109.098C399.454 109.097 399.452 109.096 399.449 109.095C399.447 109.093 399.444 109.092 399.441 109.091C399.439 109.09 399.436 109.088 399.434 109.087C399.431 109.086 399.429 109.085 399.426 109.083C399.424 109.082 399.421 109.081 399.419 109.08C399.416 109.078 399.414 109.077 399.411 109.076C399.409 109.075 399.406 109.073 399.404 109.072C399.402 109.071 399.399 109.07 399.397 109.068C399.394 109.067 399.392 109.066 399.389 109.065C399.387 109.063 399.384 109.062 399.382 109.061C399.379 109.06 399.377 109.058 399.374 109.057C399.372 109.056 399.369 109.055 399.367 109.053C399.364 109.052 399.362 109.051 399.359 109.05C399.357 109.049 399.354 109.047 399.352 109.046C399.35 109.045 399.347 109.044 399.345 109.042C399.342 109.041 399.34 109.04 399.337 109.039C399.335 109.037 399.332 109.036 399.33 109.035C399.327 109.034 399.325 109.033 399.323 109.031C399.32 109.03 399.318 109.029 399.315 109.028C399.313 109.026 399.31 109.025 399.308 109.024C399.305 109.023 399.303 109.022 399.301 109.02C399.298 109.019 399.296 109.018 399.293 109.017C399.291 109.015 399.288 109.014 399.286 109.013C399.283 109.012 399.281 109.011 399.279 109.009C399.276 109.008 399.274 109.007 399.271 109.006C399.269 109.005 399.267 109.003 399.264 109.002C399.262 109.001 399.259 109 399.257 108.998C399.254 108.997 399.252 108.996 399.25 108.995C399.247 108.994 399.245 108.992 399.242 108.991C399.24 108.99 399.238 108.989 399.235 108.988C399.233 108.986 399.23 108.985 399.228 108.984C399.226 108.983 399.223 108.982 399.221 108.98C399.218 108.979 399.216 108.978 399.214 108.977C399.211 108.976 399.209 108.974 399.206 108.973C399.204 108.972 399.202 108.971 399.199 108.97C399.197 108.968 399.194 108.967 399.192 108.966C399.19 108.965 399.187 108.964 399.185 108.963C399.183 108.961 399.18 108.96 399.178 108.959C399.175 108.958 399.173 108.957 399.171 108.955C399.168 108.954 399.166 108.953 399.164 108.952C399.161 108.951 399.159 108.949 399.156 108.948C399.154 108.947 399.152 108.946 399.149 108.945C399.147 108.944 399.145 108.942 399.142 108.941C399.14 108.94 399.138 108.939 399.135 108.938C399.133 108.936 399.13 108.935 399.128 108.934C399.126 108.933 399.123 108.932 399.121 108.931C399.119 108.929 399.116 108.928 399.114 108.927C399.112 108.926 399.109 108.925 399.107 108.924C399.105 108.922 399.102 108.921 399.1 108.92C399.098 108.919 399.095 108.918 399.093 108.917C399.091 108.915 399.088 108.914 399.086 108.913C399.084 108.912 399.081 108.911 399.079 108.91C399.077 108.908 399.074 108.907 399.072 108.906C399.07 108.905 399.067 108.904 399.065 108.903C399.063 108.901 399.06 108.9 399.058 108.899C399.056 108.898 399.054 108.897 399.051 108.896C399.049 108.895 399.047 108.893 399.044 108.892C399.042 108.891 399.04 108.89 399.037 108.889C399.035 108.888 399.033 108.886 399.03 108.885C399.028 108.884 399.026 108.883 399.024 108.882C399.021 108.881 399.019 108.88 399.017 108.878C399.014 108.877 399.012 108.876 399.01 108.875C399.008 108.874 399.005 108.873 399.003 108.872C399.001 108.87 398.998 108.869 398.996 108.868C398.994 108.867 398.992 108.866 398.989 108.865C398.987 108.864 398.985 108.862 398.982 108.861C398.98 108.86 398.978 108.859 398.976 108.858C398.973 108.857 398.971 108.856 398.969 108.855C398.967 108.853 398.964 108.852 398.962 108.851C398.96 108.85 398.958 108.849 398.955 108.848C398.953 108.847 398.951 108.845 398.949 108.844C398.946 108.843 398.944 108.842 398.942 108.841C398.94 108.84 398.937 108.839 398.935 108.838C398.933 108.836 398.931 108.835 398.928 108.834C398.926 108.833 398.924 108.832 398.922 108.831C398.919 108.83 398.917 108.829 398.915 108.827C398.913 108.826 398.91 108.825 398.908 108.824C398.906 108.823 398.904 108.822 398.901 108.821C398.899 108.82 398.897 108.819 398.895 108.817C398.893 108.816 398.89 108.815 398.888 108.814C398.886 108.813 398.884 108.812 398.881 108.811C398.879 108.81 398.877 108.809 398.875 108.807C398.873 108.806 398.87 108.805 398.868 108.804C398.866 108.803 398.864 108.802 398.862 108.801C398.859 108.8 398.857 108.799 398.855 108.798C398.853 108.796 398.85 108.795 398.848 108.794C398.846 108.793 398.844 108.792 398.842 108.791C398.839 108.79 398.837 108.789 398.835 108.788C398.833 108.787 398.831 108.785 398.829 108.784C398.826 108.783 398.824 108.782 398.822 108.781C398.82 108.78 398.818 108.779 398.815 108.778C398.813 108.777 398.811 108.776 398.809 108.775C398.807 108.773 398.805 108.772 398.802 108.771C398.8 108.77 398.798 108.769 398.796 108.768C398.794 108.767 398.791 108.766 398.789 108.765C398.787 108.764 398.785 108.763 398.783 108.761C398.781 108.76 398.779 108.759 398.776 108.758C398.774 108.757 398.772 108.756 398.77 108.755C398.768 108.754 398.766 108.753 398.763 108.752C398.761 108.751 398.759 108.75 398.757 108.749C398.755 108.747 398.753 108.746 398.751 108.745C398.748 108.744 398.746 108.743 398.744 108.742C398.742 108.741 398.74 108.74 398.738 108.739C398.736 108.738 398.733 108.737 398.731 108.736C398.729 108.735 398.727 108.734 398.725 108.732C398.723 108.731 398.721 108.73 398.718 108.729C398.716 108.728 398.714 108.727 398.712 108.726C398.71 108.725 398.708 108.724 398.706 108.723C398.704 108.722 398.701 108.721 398.699 108.72C398.697 108.719 398.695 108.718 398.693 108.717C398.691 108.716 398.689 108.714 398.687 108.713C398.685 108.712 398.682 108.711 398.68 108.71C398.678 108.709 398.676 108.708 398.674 108.707C398.672 108.706 398.67 108.705 398.668 108.704C398.666 108.703 398.664 108.702 398.661 108.701C398.659 108.7 398.657 108.699 398.655 108.698C398.653 108.697 398.651 108.696 398.649 108.695C398.647 108.693 398.645 108.692 398.643 108.691C398.641 108.69 398.639 108.689 398.636 108.688C398.634 108.687 398.632 108.686 398.63 108.685C398.628 108.684 398.626 108.683 398.624 108.682C398.622 108.681 398.62 108.68 398.618 108.679C398.616 108.678 398.614 108.677 398.612 108.676C398.61 108.675 398.607 108.674 398.605 108.673C398.603 108.672 398.601 108.671 398.599 108.67C398.597 108.669 398.595 108.668 398.593 108.667C398.591 108.666 398.589 108.665 398.587 108.664C398.585 108.662 398.583 108.661 398.581 108.66C398.579 108.659 398.577 108.658 398.575 108.657C398.573 108.656 398.571 108.655 398.568 108.654C398.566 108.653 398.564 108.652 398.562 108.651C398.56 108.65 398.558 108.649 398.556 108.648C398.554 108.647 398.552 108.646 398.55 108.645C398.548 108.644 398.546 108.643 398.544 108.642C398.542 108.641 398.54 108.64 398.538 108.639C398.536 108.638 398.534 108.637 398.532 108.636C398.53 108.635 398.528 108.634 398.526 108.633C398.524 108.632 398.522 108.631 398.52 108.63C398.518 108.629 398.516 108.628 398.514 108.627C398.512 108.626 398.51 108.625 398.508 108.624C398.506 108.623 398.504 108.622 398.502 108.621C398.5 108.62 398.498 108.619 398.496 108.618C398.494 108.617 398.492 108.616 398.49 108.615C398.488 108.614 398.486 108.613 398.484 108.612C398.482 108.611 398.48 108.61 398.478 108.609C398.476 108.608 398.474 108.607 398.472 108.606C398.47 108.605 398.468 108.604 398.466 108.603C398.464 108.602 398.462 108.601 398.46 108.6C398.458 108.599 398.456 108.598 398.454 108.597C398.452 108.596 398.45 108.595 398.448 108.594C398.446 108.593 398.444 108.592 398.442 108.591C398.44 108.59 398.439 108.589 398.437 108.588C398.435 108.587 398.433 108.586 398.431 108.585C398.429 108.584 398.427 108.583 398.425 108.582C398.423 108.582 398.421 108.581 398.419 108.58C398.417 108.579 398.415 108.578 398.413 108.577C398.411 108.576 398.409 108.575 398.407 108.574C398.405 108.573 398.403 108.572 398.402 108.571C398.4 108.57 398.398 108.569 398.396 108.568C398.394 108.567 398.392 108.566 398.39 108.565C398.388 108.564 398.386 108.563 398.384 108.562C398.382 108.561 398.38 108.56 398.378 108.559C398.376 108.558 398.375 108.557 398.373 108.556C398.371 108.555 398.369 108.554 398.367 108.553C398.365 108.553 398.363 108.552 398.361 108.551C398.359 108.55 398.357 108.549 398.355 108.548C398.353 108.547 398.352 108.546 398.35 108.545C398.348 108.544 398.346 108.543 398.344 108.542C398.342 108.541 398.34 108.54 398.338 108.539C398.336 108.538 398.334 108.537 398.333 108.536C398.331 108.535 398.329 108.534 398.327 108.534C398.325 108.533 398.323 108.532 398.321 108.531C398.319 108.53 398.317 108.529 398.316 108.528C398.314 108.527 398.312 108.526 398.31 108.525C398.308 108.524 398.306 108.523 398.304 108.522C398.302 108.521 398.301 108.52 398.299 108.519C398.297 108.518 398.295 108.518 398.293 108.517C398.291 108.516 398.289 108.515 398.288 108.514C398.286 108.513 398.284 108.512 398.282 108.511C398.28 108.51 398.278 108.509 398.276 108.508C398.275 108.507 398.273 108.506 398.271 108.505C398.269 108.505 398.267 108.504 398.265 108.503C398.263 108.502 398.262 108.501 398.26 108.5C398.258 108.499 398.256 108.498 398.254 108.497C398.252 108.496 398.25 108.495 398.249 108.494C398.247 108.493 398.245 108.493 398.243 108.492C398.241 108.491 398.239 108.49 398.238 108.489C398.236 108.488 398.234 108.487 398.232 108.486C398.23 108.485 398.229 108.484 398.227 108.483C398.225 108.483 398.223 108.482 398.221 108.481C398.219 108.48 398.218 108.479 398.216 108.478C398.214 108.477 398.212 108.476 398.21 108.475C398.209 108.474 398.207 108.473 398.205 108.473C398.203 108.472 398.201 108.471 398.199 108.47C398.198 108.469 398.196 108.468 398.194 108.467C398.192 108.466 398.19 108.465 398.189 108.464C398.187 108.464 398.185 108.463 398.183 108.462C398.181 108.461 398.18 108.46 398.178 108.459C398.176 108.458 398.174 108.457 398.173 108.456C398.171 108.455 398.169 108.455 398.167 108.454C398.165 108.453 398.164 108.452 398.162 108.451C398.16 108.45 398.158 108.449 398.157 108.448C398.155 108.447 398.153 108.447 398.151 108.446C398.149 108.445 398.148 108.444 398.146 108.443C398.144 108.442 398.142 108.441 398.141 108.44C398.139 108.439 398.137 108.439 398.135 108.438C398.134 108.437 398.132 108.436 398.13 108.435C398.128 108.434 398.127 108.433 398.125 108.432C398.123 108.432 398.121 108.431 398.12 108.43C398.118 108.429 398.116 108.428 398.114 108.427C398.113 108.426 398.111 108.425 398.109 108.425C398.107 108.424 398.106 108.423 398.104 108.422C398.102 108.421 398.1 108.42 398.099 108.419C398.097 108.419 398.095 108.418 398.093 108.417C398.092 108.416 398.09 108.415 398.088 108.414C398.086 108.413 398.085 108.412 398.083 108.412C398.081 108.411 398.08 108.41 398.078 108.409C398.076 108.408 398.074 108.407 398.073 108.406C398.071 108.406 398.069 108.405 398.068 108.404C398.066 108.403 398.064 108.402 398.062 108.401C398.061 108.4 398.059 108.4 398.057 108.399C398.056 108.398 398.054 108.397 398.052 108.396C398.051 108.395 398.049 108.394 398.047 108.394C398.045 108.393 398.044 108.392 398.042 108.391C398.04 108.39 398.039 108.389 398.037 108.389C398.035 108.388 398.034 108.387 398.032 108.386C398.03 108.385 398.029 108.384 398.027 108.383C398.025 108.383 398.023 108.382 398.022 108.381C398.02 108.38 398.018 108.379 398.017 108.378C398.015 108.378 398.013 108.377 398.012 108.376C398.01 108.375 398.008 108.374 398.007 108.373C398.005 108.373 398.003 108.372 398.002 108.371C398 108.37 397.998 108.369 397.997 108.368C397.995 108.368 397.993 108.367 397.992 108.366C397.99 108.365 397.988 108.364 397.987 108.363C397.985 108.363 397.983 108.362 397.982 108.361C397.98 108.36 397.978 108.359 397.977 108.358C397.975 108.358 397.974 108.357 397.972 108.356C397.97 108.355 397.969 108.354 397.967 108.354C397.965 108.353 397.964 108.352 397.962 108.351C397.96 108.35 397.959 108.349 397.957 108.349C397.956 108.348 397.954 108.347 397.952 108.346C397.951 108.345 397.949 108.345 397.947 108.344C397.946 108.343 397.944 108.342 397.943 108.341C397.941 108.341 397.939 108.34 397.938 108.339C397.936 108.338 397.934 108.337 397.933 108.336C397.931 108.336 397.93 108.335 397.928 108.334C397.926 108.333 397.925 108.332 397.923 108.332C397.922 108.331 397.92 108.33 397.918 108.329C397.917 108.328 397.915 108.328 397.914 108.327C397.912 108.326 397.91 108.325 397.909 108.324C397.907 108.324 397.906 108.323 397.904 108.322C397.902 108.321 397.901 108.32 397.899 108.32C397.898 108.319 397.896 108.318 397.894 108.317C397.893 108.316 397.891 108.316 397.89 108.315C397.888 108.314 397.887 108.313 397.885 108.313C397.883 108.312 397.882 108.311 397.88 108.31C397.879 108.309 397.877 108.309 397.875 108.308C397.874 108.307 397.872 108.306 397.871 108.305C397.869 108.305 397.868 108.304 397.866 108.303C397.865 108.302 397.863 108.302 397.861 108.301C397.86 108.3 397.858 108.299 397.857 108.298C397.855 108.298 397.854 108.297 397.852 108.296C397.851 108.295 397.849 108.295 397.847 108.294C397.846 108.293 397.844 108.292 397.843 108.291C397.841 108.291 397.84 108.29 397.838 108.289C397.837 108.288 397.835 108.288 397.834 108.287C397.832 108.286 397.83 108.285 397.829 108.285C397.827 108.284 397.826 108.283 397.824 108.282C397.823 108.281 397.821 108.281 397.82 108.28C397.818 108.279 397.817 108.278 397.815 108.278C397.814 108.277 397.812 108.276 397.811 108.275C397.809 108.275 397.808 108.274 397.806 108.273C397.805 108.272 397.803 108.272 397.802 108.271C397.8 108.27 397.798 108.269 397.797 108.269C397.795 108.268 397.794 108.267 397.792 108.266C397.791 108.266 397.789 108.265 397.788 108.264C397.786 108.263 397.785 108.263 397.783 108.262C397.782 108.261 397.78 108.26 397.779 108.26C397.777 108.259 397.776 108.258 397.775 108.257C397.773 108.257 397.772 108.256 397.77 108.255C397.769 108.254 397.767 108.254 397.766 108.253C397.764 108.252 397.763 108.251 397.761 108.251C397.76 108.25 397.758 108.249 397.757 108.248C397.755 108.248 397.754 108.247 397.752 108.246C397.751 108.245 397.749 108.245 397.748 108.244C397.746 108.243 397.745 108.243 397.743 108.242C397.742 108.241 397.741 108.24 397.739 108.24C397.738 108.239 397.736 108.238 397.735 108.237C397.733 108.237 397.732 108.236 397.73 108.235C397.729 108.235 397.727 108.234 397.726 108.233C397.725 108.232 397.723 108.232 397.722 108.231C397.72 108.23 397.719 108.229 397.717 108.229C397.716 108.228 397.714 108.227 397.713 108.227C397.712 108.226 397.71 108.225 397.709 108.224C397.707 108.224 397.706 108.223 397.704 108.222C397.703 108.222 397.702 108.221 397.7 108.22C397.699 108.219 397.697 108.219 397.696 108.218C397.694 108.217 397.693 108.217 397.692 108.216C397.69 108.215 397.689 108.214 397.687 108.214C397.686 108.213 397.684 108.212 397.683 108.212C397.682 108.211 397.68 108.21 397.679 108.209C397.677 108.209 397.676 108.208 397.675 108.207C397.673 108.207 397.672 108.206 397.67 108.205C397.669 108.205 397.668 108.204 397.666 108.203C397.665 108.202 397.663 108.202 397.662 108.201C397.661 108.2 397.659 108.2 397.658 108.199C397.656 108.198 397.655 108.198 397.654 108.197C397.652 108.196 397.651 108.196 397.65 108.195C397.648 108.194 397.647 108.193 397.645 108.193C397.644 108.192 397.643 108.191 397.641 108.191C397.64 108.19 397.638 108.189 397.637 108.189C397.636 108.188 397.634 108.187 397.633 108.187C397.632 108.186 397.63 108.185 397.629 108.185C397.628 108.184 397.626 108.183 397.625 108.182C397.623 108.182 397.622 108.181 397.621 108.18C397.619 108.18 397.618 108.179 397.617 108.178C397.615 108.178 397.614 108.177 397.613 108.176C397.611 108.176 397.61 108.175 397.609 108.174C397.607 108.174 397.606 108.173 397.605 108.172C397.603 108.172 397.602 108.171 397.6 108.17C397.599 108.17 397.598 108.169 397.596 108.168C397.595 108.168 397.594 108.167 397.592 108.166C397.591 108.166 397.59 108.165 397.589 108.164C397.587 108.164 397.586 108.163 397.585 108.162C397.583 108.162 397.582 108.161 397.581 108.16C397.579 108.16 397.578 108.159 397.577 108.158C397.575 108.158 397.574 108.157 397.573 108.156C397.571 108.156 397.57 108.155 397.569 108.154C397.567 108.154 397.566 108.153 397.565 108.152C397.563 108.152 397.562 108.151 397.561 108.151C397.56 108.15 397.558 108.149 397.557 108.149C397.556 108.148 397.554 108.147 397.553 108.147C397.552 108.146 397.55 108.145 397.549 108.145C397.548 108.144 397.547 108.143 397.545 108.143C397.544 108.142 397.543 108.141 397.541 108.141C397.54 108.14 397.539 108.14 397.538 108.139C397.536 108.138 397.535 108.138 397.534 108.137C397.533 108.136 397.531 108.136 397.53 108.135C397.529 108.134 397.527 108.134 397.526 108.133C397.525 108.132 397.524 108.132 397.522 108.131C397.521 108.131 397.52 108.13 397.519 108.129C397.517 108.129 397.516 108.128 397.515 108.127C397.513 108.127 397.512 108.126 397.511 108.126C397.51 108.125 397.508 108.124 397.507 108.124C397.506 108.123 397.505 108.122 397.503 108.122C397.502 108.121 397.501 108.121 397.5 108.12C397.498 108.119 397.497 108.119 397.496 108.118C397.495 108.117 397.494 108.117 397.492 108.116C397.491 108.116 397.49 108.115 397.489 108.114C397.487 108.114 397.486 108.113 397.485 108.113C397.484 108.112 397.482 108.111 397.481 108.111C397.48 108.11 397.479 108.109 397.478 108.109C397.476 108.108 397.475 108.108 397.474 108.107C397.473 108.106 397.471 108.106 397.47 108.105C397.469 108.105 397.468 108.104 397.467 108.103C397.465 108.103 397.464 108.102 397.463 108.102C397.462 108.101 397.461 108.1 397.459 108.1C397.458 108.099 397.457 108.099 397.456 108.098C397.455 108.097 397.453 108.097 397.452 108.096C397.451 108.096 397.45 108.095 397.449 108.094C397.447 108.094 397.446 108.093 397.445 108.093C397.444 108.092 397.443 108.091 397.441 108.091C397.44 108.09 397.439 108.09 397.438 108.089C397.437 108.088 397.435 108.088 397.434 108.087C397.433 108.087 397.432 108.086 397.431 108.085C397.43 108.085 397.428 108.084 397.427 108.084C397.426 108.083 397.425 108.083 397.424 108.082C397.423 108.081 397.421 108.081 397.42 108.08C397.419 108.08 397.418 108.079 397.417 108.078C397.416 108.078 397.414 108.077 397.413 108.077C397.412 108.076 397.411 108.076 397.41 108.075C397.409 108.074 397.408 108.074 397.406 108.073C397.405 108.073 397.404 108.072 397.403 108.072C397.402 108.071 397.401 108.07 397.4 108.07C397.398 108.069 397.397 108.069 397.396 108.068C397.395 108.068 397.394 108.067 397.393 108.066C397.392 108.066 397.39 108.065 397.389 108.065C397.388 108.064 397.387 108.064 397.386 108.063C397.385 108.062 397.384 108.062 397.383 108.061C397.381 108.061 397.38 108.06 397.379 108.06C397.378 108.059 397.377 108.059 397.376 108.058C397.375 108.057 397.374 108.057 397.372 108.056C397.371 108.056 397.37 108.055 397.369 108.055C397.368 108.054 397.367 108.054 397.366 108.053C397.365 108.052 397.364 108.052 397.362 108.051C397.361 108.051 397.36 108.05 397.359 108.05C397.358 108.049 397.357 108.049 397.356 108.048C397.355 108.047 397.354 108.047 397.353 108.046C397.352 108.046 397.35 108.045 397.349 108.045C397.348 108.044 397.347 108.044 397.346 108.043C397.345 108.043 397.344 108.042 397.343 108.042C397.342 108.041 397.341 108.04 397.34 108.04C397.339 108.039 397.337 108.039 397.336 108.038C397.335 108.038 397.334 108.037 397.333 108.037C397.332 108.036 397.331 108.036 397.33 108.035C397.329 108.035 397.328 108.034 397.327 108.033C397.326 108.033 397.325 108.032 397.324 108.032C397.323 108.031 397.322 108.031 397.32 108.03C397.319 108.03 397.318 108.029 397.317 108.029C397.316 108.028 397.315 108.028 397.314 108.027C397.313 108.027 397.312 108.026 397.311 108.026C397.31 108.025 397.309 108.025 397.308 108.024C397.307 108.023 397.306 108.023 397.305 108.022C397.304 108.022 397.303 108.021 397.302 108.021C397.301 108.02 397.3 108.02 397.299 108.019C397.298 108.019 397.297 108.018 397.296 108.018C397.294 108.017 397.293 108.017 397.292 108.016C397.291 108.016 397.29 108.015 397.289 108.015C397.288 108.014 397.287 108.014 397.286 108.013C397.285 108.013 397.284 108.012 397.283 108.012C397.282 108.011 397.281 108.011 397.28 108.01C397.279 108.01 397.278 108.009 397.277 108.009C397.276 108.008 397.275 108.008 397.274 108.007C397.273 108.007 397.272 108.006 397.271 108.006C397.27 108.005 397.269 108.005 397.268 108.004C397.267 108.004 397.266 108.003 397.265 108.003C397.264 108.002 397.263 108.002 397.262 108.001C397.261 108.001 397.26 108 397.259 108C397.258 107.999 397.257 107.999 397.256 107.998C397.255 107.998 397.255 107.997 397.254 107.997C397.253 107.996 397.252 107.996 397.251 107.995C397.25 107.995 397.249 107.994 397.248 107.994C397.247 107.993 397.246 107.993 397.245 107.992C397.244 107.992 397.243 107.992 397.242 107.991C397.241 107.991 397.24 107.99 397.239 107.99C397.238 107.989 397.237 107.989 397.236 107.988C397.235 107.988 397.234 107.987 397.233 107.987C397.232 107.986 397.231 107.986 397.231 107.985C397.23 107.985 397.229 107.984 397.228 107.984C397.227 107.983 397.226 107.983 397.225 107.983C397.224 107.982 397.223 107.982 397.222 107.981C397.221 107.981 397.22 107.98 397.219 107.98C397.218 107.979 397.217 107.979 397.217 107.978C397.216 107.978 397.215 107.977 397.214 107.977C397.213 107.976 397.212 107.976 397.211 107.976C397.21 107.975 397.209 107.975 397.208 107.974C397.207 107.974 397.206 107.973 397.206 107.973C397.205 107.972 397.204 107.972 397.203 107.971C397.202 107.971 397.201 107.971 397.2 107.97C397.199 107.97 397.198 107.969 397.197 107.969C397.196 107.968 397.196 107.968 397.195 107.967C397.194 107.967 397.193 107.966 397.192 107.966C397.191 107.966 397.19 107.965 397.189 107.965C397.188 107.964 397.188 107.964 397.187 107.963C397.186 107.963 397.185 107.963 397.184 107.962C397.183 107.962 397.182 107.961 397.181 107.961C397.18 107.96 397.18 107.96 397.179 107.959C397.178 107.959 397.177 107.959 397.176 107.958C397.175 107.958 397.174 107.957 397.173 107.957C397.173 107.956 397.172 107.956 397.171 107.956C397.17 107.955 397.169 107.955 397.168 107.954C397.167 107.954 397.167 107.953 397.166 107.953C397.165 107.953 397.164 107.952 397.163 107.952C397.162 107.951 397.161 107.951 397.161 107.95C397.16 107.95 397.159 107.95 397.158 107.949C397.157 107.949 397.156 107.948 397.156 107.948C397.155 107.947 397.154 107.947 397.153 107.947C397.152 107.946 397.151 107.946 397.151 107.945C397.15 107.945 397.149 107.944 397.148 107.944C397.147 107.944 397.146 107.943 397.146 107.943C397.145 107.942 397.144 107.942 397.143 107.942C397.142 107.941 397.141 107.941 397.141 107.94C397.14 107.94 397.139 107.94 397.138 107.939C397.137 107.939 397.137 107.938 397.136 107.938C397.135 107.938 397.134 107.937 397.133 107.937C397.132 107.936 397.132 107.936 397.131 107.935C397.13 107.935 397.129 107.935 397.128 107.934C397.128 107.934 397.127 107.933 397.126 107.933C397.125 107.933 397.124 107.932 397.124 107.932C397.123 107.932 397.122 107.931 397.121 107.931C397.12 107.93 397.12 107.93 397.119 107.93C397.118 107.929 397.117 107.929 397.117 107.928C397.116 107.928 397.115 107.928 397.114 107.927C397.113 107.927 397.113 107.926 397.112 107.926C397.111 107.926 397.11 107.925 397.11 107.925C397.109 107.924 397.108 107.924 397.107 107.924C397.106 107.923 397.106 107.923 397.105 107.923C397.104 107.922 397.103 107.922 397.103 107.921C397.102 107.921 397.101 107.921 397.1 107.92C397.1 107.92 397.099 107.92 397.098 107.919C397.097 107.919 397.097 107.918 397.096 107.918L396.774 108.562ZM399.385 109.867C400.732 110.444 401.585 110.824 401.958 111.01L402.28 110.366C401.885 110.168 401.01 109.78 399.669 109.205L399.385 109.867ZM401.965 111.014C412.069 115.779 417.023 122.206 417.023 130.272H417.743C417.743 121.826 412.521 115.197 402.272 110.362L401.965 111.014Z" fill="#F27121" mask="url(#path-1-outside-1_136_247)"/>
<circle cx="280.8" cy="69.84" r="9.72" fill="#C21F6E"/>
<circle cx="228.24" cy="69.84" r="9.72" fill="#BA1B7C"/>
<path d="M276.662 126.581L275.798 118.224L283.955 120.233L276.662 126.581Z" fill="white" stroke="#F07C34" stroke-width="0.36"/>
<path d="M223.694 126.706L222.596 117.999L230.803 120.017L223.694 126.706Z" fill="white" stroke="#F07C34" stroke-width="0.36"/>
</g>
</g>
<defs>
<linearGradient id="paint0_linear_136_247" x1="214.311" y1="177.429" x2="402.7" y2="-90.2812" gradientUnits="userSpaceOnUse">
<stop stop-color="#A3109E"/>
<stop offset="1" stop-color="#FF3A0F"/>
<stop offset="1" stop-color="#F83916"/>
</linearGradient>
<clipPath id="clip0_136_247">
<rect width="564.48" height="288" fill="white"/>
</clipPath>
<clipPath id="clip1_136_247">
<rect width="564.48" height="288" fill="white"/>
</clipPath>
</defs>
</svg>
